<?xml version="1.0" encoding="UTF-8" standalone="no"?>
<!-- Created with Inkscape (http://www.inkscape.org/) -->

<svg
   width="101.47594mm"
   height="124.12404mm"
   viewBox="0 0 101.47594 124.12404"
   version="1.1"
   id="svg1"
   xml:space="preserve"
   xmlns="http://www.w3.org/2000/svg"
   xmlns:svg="http://www.w3.org/2000/svg"><defs
     id="defs1" /><g
     id="layer1"
     transform="translate(-47.478049,-33.328427)"><path
       style="fill:#000000"
       d="m 72.405509,157.26984 c -5.398279,-0.64859 -10.876802,-3.6795 -14.326568,-7.92595 -1.735519,-2.13632 -3.609959,-5.81475 -4.379611,-8.59463 l -0.586032,-2.11667 -0.08839,-32.80832 c -0.06577,-24.411042 -0.0089,-33.174282 0.222155,-34.238072 0.425077,-1.95703 2.1989,-3.7732 4.140046,-4.23887 2.552269,-0.61228 5.097543,0.5753 6.268282,2.92466 l 0.693978,1.39264 v 32.596222 c 0,31.75138 0.01359,32.64022 0.524467,34.29424 1.04331,3.37784 3.716252,6.04115 7.129018,7.10332 1.588648,0.49445 2.625551,0.51481 26.213176,0.51481 23.58763,0 24.62454,-0.0204 26.21319,-0.51481 3.41276,-1.06217 6.0857,-3.72548 7.12901,-7.10332 0.51088,-1.65402 0.52447,-2.54286 0.52447,-34.29424 V 71.664628 l 0.69398,-1.39264 c 1.17074,-2.34936 3.71601,-3.53694 6.26828,-2.92466 1.96049,0.47031 3.72276,2.28652 4.13217,4.25865 0.21739,1.04715 0.2785,10.51311 0.22105,34.236962 l -0.0794,32.78965 -0.58603,2.11667 c -0.76935,2.77876 -2.64392,6.4581 -4.37753,8.59205 -2.7939,3.43908 -7.14222,6.21829 -11.69647,7.47573 -2.10879,0.58225 -2.21022,0.58459 -27.252082,0.63069 -13.824477,0.0255 -25.974994,-0.0546 -27.001147,-0.17789 z m 12.584075,-28.37801 c -1.265127,-0.40289 -2.985271,-2.19303 -3.38149,-3.5191 -0.468679,-1.56857 -0.468679,-41.497112 0,-43.065682 0.450447,-1.50756 2.151259,-3.14777 3.719312,-3.5868 2.607445,-0.73004 5.318976,0.41598 6.524138,2.75741 l 0.675947,1.31325 0.0766,20.380222 c 0.05326,14.17151 -0.01207,20.74293 -0.214467,21.57084 -0.824896,3.37427 -4.088475,5.20445 -7.400041,4.14986 z m 21.991886,-0.34592 c -1.57174,-0.78323 -2.49378,-1.97637 -2.93963,-3.80394 -0.2016,-0.82638 -0.26703,-7.42555 -0.21387,-21.57084 l 0.0766,-20.380222 0.67594,-1.31325 c 1.20516,-2.34143 3.9167,-3.48745 6.52414,-2.75741 1.56805,0.43903 3.26887,2.07924 3.71931,3.5868 0.46868,1.56857 0.46868,41.497112 0,43.065682 -0.42,1.40568 -2.13608,3.12176 -3.54176,3.54176 -1.6471,0.49214 -2.76591,0.39626 -4.30074,-0.36858 z M 51.122919,61.158498 c -1.365733,-0.43493 -3.009943,-2.208751 -3.426528,-3.696645 -0.729974,-2.607212 0.415951,-5.318832 2.757088,-6.524138 l 1.312931,-0.675947 11.967149,-0.07631 11.967148,-0.07631 0.07902,-6.582348 0.07902,-6.582348 0.805499,-1.146554 c 0.443024,-0.630605 1.335993,-1.44421 1.984374,-1.808012 l 1.178877,-0.661459 h 18.388536 18.388557 l 1.17887,0.661459 c 0.64838,0.363802 1.54135,1.177407 1.98438,1.808012 l 0.80549,1.146554 0.079,6.582348 0.079,6.582348 11.96715,0.07631 11.96715,0.07631 1.31293,0.675947 c 2.34113,1.205306 3.48706,3.916926 2.75709,6.524138 -0.43903,1.568055 -2.07925,3.268865 -3.5868,3.719315 -1.49062,0.44538 -92.625203,0.42341 -94.025966,-0.0227 z M 109.59312,47.351351 V 44.573226 H 98.216028 86.83895 v 2.778125 2.778125 h 11.377078 11.377092 z"
       id="path1" /></g></svg>
