<?xml version="1.0" encoding="UTF-8" standalone="no"?>
<!-- Generator: Adobe Illustrator 25.1.0, SVG Export Plug-In . SVG Version: 6.00 Build 0)  -->

<svg
   version="1.1"
   id="Ebene_1"
   x="0px"
   y="0px"
   width="209.38252"
   height="80"
   viewBox="0 0 2617.2815 999.99999"
   xml:space="preserve"
   xmlns="http://www.w3.org/2000/svg"
   xmlns:svg="http://www.w3.org/2000/svg"><defs
   id="defs78" />
<style
   type="text/css"
   id="style1">
	.st0{opacity:0.32;}
	.st1{fill:#0F579D;}
	.st2{opacity:0.63;}
	.st3{opacity:0.23;}
	.st4{opacity:0.33;}
	.st5{opacity:0.4;}
	.st6{opacity:0.5;fill:#0F579D;}
	.st7{opacity:0.39;}
	.st8{opacity:0.36;}
	.st9{opacity:0.36;fill:#0F579D;}
	.st10{fill:#9C27B0;}
	.st11{fill:#46997D;}
	.st12{fill:#F3912A;}
	.st13{fill:#006193;}
	.st14{fill:#D91E18;}
	.st15{fill:#FFFFFF;}
	.st16{fill:none;stroke:#FFFFFF;stroke-width:2.3655;stroke-miterlimit:10;}
	.st17{fill:#FFCC00;}
	.st18{fill:#E53C43;}
	.st19{fill:#ED1C24;}
	.st20{fill:#5CADD6;}
	.st21{fill:#A56DF5;}
	.st22{fill:#909504;}
	.st23{fill:#FF931E;}
	.st24{fill:#A6D0E4;}
	.st25{fill:url(#);}
	.st26{fill:#F2F2F2;stroke:#131313;stroke-width:1.0632;stroke-miterlimit:10;}
	.st27{fill:#1B1464;}
	.st28{fill:#666666;}
	.st29{fill:#09325A;}
	.st30{fill:#F2F2F2;}
	.st31{fill:#4D4D4D;}
	.st32{fill:#E8EAEC;}
	.st33{fill:#35A649;}
	.st34{fill:#664747;}
	.st35{fill:none;stroke:#FFFFFF;stroke-miterlimit:10;}
	.st36{fill:none;}
	.st37{fill:none;stroke:#FFFFFF;stroke-width:4;stroke-miterlimit:10;}
	.st38{fill:#40806A;}
	.st39{fill:none;stroke:#0F579D;stroke-width:0.8902;stroke-miterlimit:10;}
	.st40{fill:none;stroke:#0F579D;stroke-width:0.506;stroke-miterlimit:10;}
	.st41{fill:none;stroke:#0F579D;stroke-width:0.8329;stroke-miterlimit:10;}
	.st42{fill:none;stroke:#0F579D;stroke-width:0.4734;stroke-miterlimit:10;}
	.st43{fill:#FF3C43;}
	.st44{fill:none;stroke:#FFFFFF;stroke-width:0.9615;stroke-miterlimit:10;}
	.st45{fill:#FFC108;}
	.st46{fill:#3F50B5;}
	.st47{fill:#4CAF50;}
	.st48{fill:#FF9800;}
	.st49{fill:#F44436;}
	.st50{fill:#533700;}
	.st51{fill:none;stroke:#FFFFFF;stroke-width:2.5753;stroke-miterlimit:10;}
	.st52{fill:#7BB6A2;}
	.st53{fill:#A1CBBD;}
	.st54{fill:#D2007F;}
	.st55{fill:#4B6319;}
	.st56{fill:#008000;}
	.st57{fill:#552118;}
	.st58{fill:#007A7C;}
	.st59{fill:#8859B6;}
	.st60{fill:#646464;}
	.st61{fill:#12589E;}
	.st62{fill:none;stroke:#FFFFFF;stroke-width:1.147;stroke-miterlimit:10;}
	.st63{fill:#FFFFFF;stroke:#8E9105;stroke-width:1.147;stroke-miterlimit:10;}
	.st64{fill:#F08B22;}
	.st65{fill:#FBAE17;}
	.st66{fill:#8C6239;}
	.st67{fill:#F15A24;}
	.st68{fill:#662D91;}
	.st69{fill:#109875;}
	.st70{opacity:0.17;}
	.st71{opacity:0.17;fill:#666666;}
	.st72{fill:#6F6F6F;}
	.st73{fill:#BABABA;}
	.st74{fill:#CECECE;}
	.st75{fill:#C6C6C6;}
	.st76{fill:none;stroke:#46997D;stroke-width:7.8464;stroke-miterlimit:10;}
	.st77{fill:none;stroke:#46997D;stroke-width:0.938;stroke-miterlimit:10;}
	.st78{fill:#10589D;}
	.st79{fill:#FFDD03;}
	.st80{fill:#525252;}
	.st81{fill:#A7A7A7;}
	.st82{fill:#484848;}
	.st83{fill:none;stroke:#1B1464;stroke-width:2.9177;stroke-miterlimit:10;}
	.st84{fill:none;stroke:#000000;stroke-miterlimit:10;}
	.st85{fill:none;stroke:#FF931E;stroke-width:1.9545;stroke-miterlimit:10;}
	.st86{opacity:0.3;fill:#ED1C24;}
	.st87{fill:#1D1D1B;}
	.st88{fill:none;stroke:#1D1D1B;stroke-miterlimit:10;}
	.st89{opacity:0.58;}
	.st90{opacity:0.95;}
	.st91{clip-path:url(#SVGID_2_);}
	.st92{opacity:0.41;}
	.st93{opacity:0.78;}
	.st94{opacity:0.68;fill:#C1272D;}
	.st95{opacity:0.79;fill:#C1272D;}
	.st96{fill:none;stroke:#0F579D;stroke-width:1.4579;stroke-miterlimit:10;}
	.st97{fill:#B4B3B4;}
	.st98{fill:none;stroke:#000000;stroke-width:0.7587;}
	.st99{fill:#003F72;}
	.st100{fill:#00436C;}
	.st101{clip-path:url(#SVGID_6_);fill:#10589E;}
	.st102{fill:#10589E;}
	.st103{clip-path:url(#SVGID_8_);fill:#10589E;}
	.st104{fill:#F3912B;}
	.st105{clip-path:url(#SVGID_10_);fill:#F3912B;}
	.st106{clip-path:url(#SVGID_12_);fill:#10589E;}
	.st107{clip-path:url(#SVGID_14_);fill:#10589E;}
	.st108{fill:#646363;}
	.st109{fill:#FFCD1C;}
	.st110{clip-path:url(#SVGID_15_);fill:#FFCD1C;}
	.st111{clip-path:url(#SVGID_16_);fill:#FFCD1C;}
	.st112{clip-path:url(#SVGID_17_);fill:#FFCD1C;}
	.st113{clip-path:url(#SVGID_18_);fill:#FECD1B;}
	.st114{clip-path:url(#SVGID_19_);fill:#007A7C;}
	.st115{clip-path:url(#SVGID_20_);fill:#D91E18;}
	.st116{clip-path:url(#SVGID_20_);fill:#DA1E19;}
	.st117{clip-path:url(#SVGID_21_);fill:#4B6319;}
	.st118{clip-path:url(#SVGID_22_);fill:#7F5BA2;}
	.st119{fill:#7F5BA2;}
	.st120{clip-path:url(#SVGID_23_);fill:#7F5BA2;}
	.st121{clip-path:url(#SVGID_23_);fill:#8859B6;}
	.st122{clip-path:url(#SVGID_24_);fill:#008000;}
	.st123{clip-path:url(#SVGID_24_);fill:#098B3A;}
	.st124{clip-path:url(#SVGID_26_);fill:#D2007F;}
	.st125{clip-path:url(#SVGID_28_);fill:#552118;}
	.st126{clip-path:url(#SVGID_28_);fill:#562219;}
	.st127{fill:#F39325;}
	.st128{fill:none;stroke:#0F579D;stroke-miterlimit:10;}
	.st129{opacity:0.51;fill:#FFFFFF;}
	.st130{fill:#1D1D1B;stroke:#1D1D1B;stroke-width:1.3556;stroke-miterlimit:10;}
</style>
<g
   id="g78">
	<path
   id="path78"
   style="fill:#12589e;fill-opacity:1;stroke-width:0.874422;-inkscape-stroke:none"
   d="M 522.58984,74.91211 A 438.22113,438.22113 0 0 0 84.369141,513.13281 438.22113,438.22113 0 0 0 522.58984,951.3535 438.22113,438.22113 0 0 0 913.24219,709.76953 v -38.95117 l -13.53711,-1.89844 c -2.22861,-0.41271 -4.04407,-1.23895 -5.44727,-2.39453 -1.4032,-1.15558 -2.0625,-2.80654 -2.0625,-5.03516 v -11.88671 h 21.04688 V 637.9668 c 0,-7.84142 1.15564,-14.85824 3.46679,-21.04883 2.31115,-6.1906 5.61266,-11.47349 9.82227,-15.76563 4.29215,-4.29214 9.49352,-7.59314 15.60156,-9.90429 3.53515,-1.33763 7.35404,-2.2764 11.41016,-2.83985 a 438.22113,438.22113 0 0 0 7.26953,-75.27539 438.22113,438.22113 0 0 0 -18.67969,-126.51758 v 70.50196 H 913.24219 V 342.46875 l -13.53711,-1.89844 c -2.22861,-0.41271 -4.04407,-1.23895 -5.44727,-2.39453 -1.4032,-1.15558 -2.0625,-2.80654 -2.0625,-5.03516 v -11.88476 h 21.04688 v -6.4043 A 438.22113,438.22113 0 0 0 522.58984,74.91211 Z m 390.65235,239.93945 a 438.22113,438.22113 0 0 1 28.89062,71.76367 V 342.2207 h 36.73047 v -20.96484 h -37.63867 v -10.64844 c 0,-5.53025 0.57633,-10.07081 1.81445,-13.78515 1.23812,-3.71436 2.97205,-6.68546 5.28321,-8.91407 2.31114,-2.22861 5.11878,-3.87915 8.33789,-4.78711 3.30164,-0.90795 6.93204,-1.40234 10.97656,-1.40234 3.38419,0 6.10927,-0.2494 8.33789,-0.66211 2.14607,-0.41271 3.38375,-1.89732 3.54883,-4.29102 l 0.57812,-14.60937 c -2.72385,-0.90796 -5.53148,-1.65174 -8.33789,-2.06445 -2.88894,-0.4127 -5.85953,-0.66016 -8.99609,-0.66016 -7.59378,0 -14.52671,1.15564 -20.63477,3.4668 -6.10804,2.31115 -11.30941,5.61216 -15.60156,9.90429 -4.20961,4.29215 -7.51112,9.57504 -9.82227,15.76563 -2.31115,6.19058 -3.46679,13.20741 -3.46679,21.04883 z m 40.30078,273.55664 a 438.22113,438.22113 0 0 1 -6.32617,29.08008 c 0.35969,-0.42149 0.71283,-0.85186 1.10547,-1.23047 2.31114,-2.22861 5.11878,-3.87916 8.33789,-4.78711 3.30164,-0.90796 6.93204,-1.40429 10.97656,-1.40429 3.38419,0 6.10927,-0.24745 8.33789,-0.66016 2.14607,-0.4127 3.38375,-1.89733 3.54883,-4.29102 l 0.57812,-14.61132 c -2.72385,-0.90795 -5.53148,-1.6498 -8.33789,-2.0625 -2.88894,-0.41271 -5.85953,-0.66016 -8.99609,-0.66016 -3.19875,0 -6.27253,0.21687 -9.22461,0.62695 z m -6.32617,29.08008 c -1.75753,2.05953 -3.14996,4.60026 -4.17774,7.6836 -1.23812,3.71435 -1.81445,8.2549 -1.81445,13.78515 v 2.55859 a 438.22113,438.22113 0 0 0 5.99219,-24.02734 z m -5.99219,24.02734 a 438.22113,438.22113 0 0 1 -27.98242,68.25391 v 75.61524 0.082 h 28.89062 V 670.57031 h 36.73047 v -20.96679 h -37.63867 z" />
	<path
   class="st61"
   d="m 1006.5141,338.50622 c 15.6003,-14.52727 34.0896,-21.70836 55.6329,-21.70836 7.9239,0 14.9399,1.32066 21.1305,3.87944 6.1906,2.55878 11.3082,6.19059 15.5178,10.89545 4.2096,4.70485 7.3462,10.23512 9.5748,16.67334 2.2286,6.43822 3.3016,13.53677 3.3016,21.37819 v 87.49376 h -12.9589 c -2.8065,0 -4.87,-0.4127 -6.3557,-1.32066 -1.4032,-0.82541 -2.6413,-2.55878 -3.6318,-5.2001 l -2.8064,-11.22561 c -3.5493,3.13657 -7.0161,5.94297 -10.4002,8.41921 -3.3842,2.47624 -6.9335,4.53977 -10.5653,6.27313 -3.6319,1.73337 -7.5938,2.97149 -11.7209,3.87945 -4.2096,0.82541 -8.8319,1.32066 -13.8669,1.32066 -5.6128,0 -10.8129,-0.74288 -15.6003,-2.31116 -4.7874,-1.56828 -8.997,-3.87944 -12.4638,-6.93347 -3.5493,-3.13657 -6.2731,-6.93347 -8.3366,-11.55578 -2.0636,-4.62231 -3.0541,-9.98749 -3.0541,-16.17809 0,-5.28264 1.4032,-10.48274 4.2922,-15.51776 2.8064,-5.03502 7.5112,-9.57479 14.032,-13.53677 6.5208,-4.04453 15.105,-7.34618 25.7529,-9.90496 10.6478,-2.64132 23.8544,-4.12706 39.5372,-4.45723 v -9.24462 c 0,-9.90495 -2.146,-17.25113 -6.3556,-22.12106 -4.2096,-4.86994 -10.4828,-7.26364 -18.6544,-7.26364 -5.6128,0 -10.2351,0.66033 -14.032,2.06353 -3.7969,1.40321 -7.0985,2.88895 -9.8224,4.53978 -2.8064,1.65082 -5.2826,3.13656 -7.4287,4.53977 -2.1461,1.4032 -4.4572,2.06353 -6.8509,2.06353 -1.981,0 -3.6319,-0.49525 -5.0351,-1.56829 -1.4032,-1.07303 -2.5587,-2.31115 -3.4667,-3.87944 z m 77.0111,58.35668 c -10.3177,0.33017 -19.0671,1.15558 -26.1656,2.47624 -7.0986,1.32066 -12.8765,2.97149 -17.2512,5.03502 -4.3747,2.06353 -7.5938,4.45723 -9.4922,7.26363 -1.8985,2.80641 -2.889,5.86044 -2.889,9.16209 0,3.21911 0.4953,6.02551 1.5683,8.33667 1.0731,2.31115 2.4763,4.2096 4.2922,5.69535 1.8159,1.48574 4.0445,2.55878 6.5207,3.21911 2.4763,0.66033 5.2001,0.99049 8.1716,0.99049 7.5938,0 14.032,-1.4032 19.4798,-4.29215 5.4477,-2.8064 10.7303,-6.93346 15.8479,-12.38119 V 396.8629 Z"
   id="path2"
   style="stroke-width:0.825413" />
	<path
   class="st61"
   d="m 1191.4891,277.75583 c 0,2.64132 -0.4952,5.11756 -1.5682,7.42872 -1.0731,2.31115 -2.4763,4.37468 -4.2922,6.10805 -1.8159,1.73337 -3.8794,3.13657 -6.2731,4.20961 -2.3937,1.07303 -4.9525,1.56828 -7.5938,1.56828 -2.6413,0 -5.035,-0.49525 -7.3462,-1.56828 -2.3111,-1.07304 -4.2921,-2.3937 -6.0255,-4.20961 -1.7334,-1.73337 -3.054,-3.7969 -4.1271,-6.10805 -1.073,-2.31116 -1.5683,-4.7874 -1.5683,-7.42872 0,-2.72386 0.4953,-5.2001 1.5683,-7.5938 1.0731,-2.31115 2.3937,-4.37469 4.1271,-6.10805 1.7334,-1.73337 3.7144,-3.13657 6.0255,-4.20961 2.3112,-1.07304 4.7874,-1.56828 7.3462,-1.56828 2.7238,0 5.2826,0.49524 7.5938,1.56828 2.3937,1.07304 4.4572,2.3937 6.2731,4.20961 1.8159,1.73336 3.2191,3.7969 4.2922,6.10805 1.073,2.3937 1.5682,4.86994 1.5682,7.5938 z m -4.7873,41.60081 v 137.7614 h -29.0546 v -137.7614 z"
   id="path3"
   style="stroke-width:0.825413" />
	<path
   class="st61"
   d="m 1833.6604,347.33813 c -2.0636,-6.52076 -5.1176,-11.96848 -9.0796,-16.42571 -4.0445,-4.45723 -8.9144,-7.84142 -14.6923,-10.23512 -5.7779,-2.31116 -12.3812,-3.54928 -19.8099,-3.54928 -4.5398,0 -8.9145,0.49525 -13.2892,1.56829 -4.3747,1.07303 -8.5017,2.64132 -12.3812,4.78739 -3.8794,2.14608 -7.3462,4.95248 -10.5653,8.33667 -3.1365,3.38419 -5.7779,7.51126 -7.8414,12.29865 -1.3207,-4.12706 -3.054,-7.84142 -5.1176,-11.22561 -2.0635,-3.30165 -4.5397,-6.1906 -7.3461,-8.50175 -2.8064,-2.31116 -6.1081,-4.12707 -9.8224,-5.36519 -3.7144,-1.23812 -7.7589,-1.89845 -12.1336,-1.89845 -4.1271,0 -8.0065,0.49525 -11.5558,1.48575 -3.5493,0.99049 -6.8509,2.39369 -9.9875,4.12706 -3.1366,1.73337 -6.0255,3.7969 -8.7494,6.1906 -2.7238,2.39369 -5.2826,5.03502 -7.8414,7.92396 l -1.8984,-12.05103 c -1.0731,-3.71436 -3.6318,-5.53026 -7.5938,-5.53026 h -17.5813 v 123.89447 c -10.2351,2.14607 -20.3877,4.2096 -30.4578,6.02551 -15.8479,2.88894 -32.1085,5.28264 -48.9469,7.26363 -16.7559,1.89845 -34.3372,3.38419 -52.7439,4.37469 -18.4067,0.9905 -38.2166,1.48574 -59.5948,1.48574 -21.5433,0 -41.4358,-0.49524 -59.8425,-1.48574 -18.4067,-0.9905 -35.988,-2.47624 -52.7438,-4.37469 -16.7559,-1.89845 -33.0991,-4.37469 -48.947,-7.26363 -9.9875,-1.81591 -20.0576,-3.7969 -30.2101,-5.94297 v -71.81092 c 1.6508,-4.12707 3.3842,-7.84142 5.2826,-11.06053 1.8985,-3.21911 4.0445,-6.02552 6.5208,-8.25413 2.4762,-2.22862 5.2826,-3.96198 8.3366,-5.11756 3.1366,-1.15558 6.6859,-1.73337 10.7304,-1.73337 2.8064,0 5.4477,0.24763 8.0065,0.74287 2.5588,0.49525 4.4572,0.74287 5.7779,0.74287 1.2381,0 2.3112,-0.33016 3.054,-0.90795 0.7429,-0.57779 1.3207,-1.65083 1.6509,-3.13657 l 2.0635,-21.87344 c -2.0635,-1.32066 -4.3747,-2.3937 -7.016,-3.05403 -2.6413,-0.66033 -5.3652,-0.99049 -8.3367,-0.99049 -8.5843,0 -15.9305,2.47624 -22.0385,7.51125 -6.1081,5.03502 -11.3082,11.88595 -15.6829,20.55278 l -1.7333,-17.994 c -0.4127,-2.8064 -1.2381,-4.78739 -2.3937,-5.86043 -1.1556,-1.15557 -3.3017,-1.65082 -6.3557,-1.65082 h -16.8384 v 137.7614 c 30.045,7.75888 63.3091,13.86694 99.7098,18.32417 36.4008,4.45723 76.7634,6.68584 121.0881,6.68584 44.3247,0 84.6048,-2.3937 121.0881,-6.68584 51.2581,-6.10806 70.1601,-7.51126 99.7099,-18.32417 V 355.59226 c 3.8794,-4.78739 8.089,-8.50175 12.7113,-11.30815 4.6223,-2.72387 9.5748,-4.12707 15.0225,-4.12707 7.8414,0 13.7844,2.3937 17.8289,7.09855 4.0446,4.70486 6.1081,12.13357 6.1081,22.20361 v 87.65884 h 29.0545 V 369.4592 c 0,-4.86994 0.6604,-9.07954 2.0636,-12.7939 1.4032,-3.63182 3.3016,-6.68585 5.7778,-9.07954 2.3937,-2.3937 5.2827,-4.29215 8.5018,-5.53027 3.2191,-1.23812 6.6858,-1.89845 10.4002,-1.89845 8.1716,0 14.3622,2.47624 18.5718,7.34618 4.2096,4.86993 6.2731,12.21611 6.2731,21.95598 v 87.65884 h 29.0546 V 369.4592 c -0.083,-8.25413 -1.1556,-15.68285 -3.2191,-22.12107 z"
   id="path4"
   style="stroke-width:0.825413" />
	<path
   class="st61"
   d="m 1916.6969,277.75583 c 0,2.64132 -0.4953,5.11756 -1.5683,7.42872 -1.073,2.31115 -2.4762,4.37468 -4.2921,6.10805 -1.816,1.73337 -3.8795,3.13657 -6.2732,4.20961 -2.3937,1.07303 -4.9525,1.56828 -7.5938,1.56828 -2.6413,0 -5.035,-0.49525 -7.3462,-1.56828 -2.3111,-1.07304 -4.2921,-2.3937 -6.0255,-4.20961 -1.7333,-1.73337 -3.054,-3.7969 -4.127,-6.10805 -1.0731,-2.31116 -1.5683,-4.7874 -1.5683,-7.42872 0,-2.72386 0.4952,-5.2001 1.5683,-7.5938 1.073,-2.31115 2.3937,-4.37469 4.127,-6.10805 1.7334,-1.73337 3.7144,-3.13657 6.0255,-4.20961 2.3112,-1.07304 4.7874,-1.56828 7.3462,-1.56828 2.7239,0 5.2827,0.49524 7.5938,1.56828 2.3937,1.07304 4.4572,2.3937 6.2732,4.20961 1.8159,1.73336 3.2191,3.7969 4.2921,6.10805 1.073,2.3937 1.5683,4.86994 1.5683,7.5938 z m -4.7874,41.60081 v 137.7614 h -29.0545 v -137.7614 z"
   id="path5"
   style="stroke-width:0.825413" />
	<path
   class="st61"
   d="m 1980.3362,390.50723 c 0.3302,7.84142 1.5683,14.6098 3.6318,20.30515 2.0636,5.69535 4.87,10.48274 8.3367,14.27964 3.4667,3.7969 7.5938,6.60331 12.4637,8.41921 4.7874,1.81591 10.2352,2.80641 16.0956,2.80641 5.6953,0 10.5653,-0.66033 14.6923,-1.98099 4.1271,-1.32066 7.7589,-2.72386 10.8129,-4.29215 3.0541,-1.56828 5.6954,-3.05403 7.8415,-4.29215 2.146,-1.32066 4.127,-1.98099 5.9429,-1.98099 2.3112,0 4.1271,0.90796 5.3652,2.72387 l 8.2542,10.64782 c -3.3842,4.04452 -7.2637,7.51126 -11.6384,10.23512 -4.2921,2.8064 -8.9144,5.03502 -13.7844,6.85093 -4.8699,1.73336 -9.8224,3.05403 -15.0225,3.7969 -5.1175,0.74287 -10.1526,1.15557 -15.0225,1.15557 -9.5748,0 -18.4067,-1.56828 -26.4957,-4.78739 -8.1716,-3.21911 -15.1876,-7.92396 -21.2132,-14.11456 -6.0255,-6.1906 -10.6478,-13.86694 -14.032,-23.11156 -3.3842,-9.16208 -5.035,-19.72737 -5.035,-31.69585 0,-9.57479 1.4858,-18.48925 4.5398,-26.74338 3.054,-8.25413 7.3462,-15.51776 12.959,-21.62582 5.6128,-6.10805 12.4637,-10.97799 20.5527,-14.52726 8.0891,-3.54928 17.1686,-5.36519 27.3212,-5.36519 8.4192,0 16.2606,1.40321 23.5243,4.12707 7.1811,2.72386 13.3717,6.76838 18.6543,12.05103 5.2001,5.28264 9.3272,11.8034 12.2161,19.47974 2.889,7.67634 4.3747,16.42572 4.3747,26.24813 0,4.53977 -0.4952,7.51126 -1.4857,9.07954 -0.9905,1.56828 -2.8064,2.31116 -5.3652,2.31116 z m 69.2522,-17.82892 c 0,-4.86994 -0.6604,-9.40971 -2.0636,-13.53677 -1.4032,-4.20961 -3.4667,-7.84142 -6.108,-10.97799 -2.7239,-3.13657 -6.0255,-5.53027 -10.0701,-7.26364 -4.0445,-1.73336 -8.5843,-2.64132 -13.8669,-2.64132 -10.5653,0 -18.8194,3.05403 -24.8449,9.07954 -6.0255,6.02552 -9.8224,14.52727 -11.4733,25.42272 h 68.4268 z"
   id="path6"
   style="stroke-width:0.825413" />
	<path
   class="st61"
   d="m 2156.3968,459.26412 c -11.4733,0 -20.2226,-3.21911 -26.4132,-9.65733 -6.1906,-6.43822 -9.2447,-15.51777 -9.2447,-27.23863 v -80.23013 h -15.105 c -1.6508,0 -3.054,-0.49525 -4.2096,-1.56828 -1.1556,-1.07304 -1.7334,-2.55878 -1.7334,-4.62231 v -11.72087 l 22.2862,-3.21911 6.3556,-39.86744 c 0.4127,-1.56828 1.2382,-2.8064 2.3112,-3.71436 1.073,-0.90795 2.5588,-1.4032 4.2921,-1.4032 h 14.8575 v 45.23263 h 38.2166 v 20.96548 h -38.2166 v 78.1666 c 0,4.95248 1.2381,8.74938 3.6318,11.30816 2.3937,2.64132 5.6953,3.87944 9.7399,3.87944 2.2286,0 4.2096,-0.33017 5.7779,-0.90796 1.6508,-0.57779 3.054,-1.23812 4.2096,-1.89845 1.1555,-0.66033 2.146,-1.32066 3.054,-1.89845 0.8254,-0.57779 1.6508,-0.90795 2.4762,-0.90795 1.6509,0 2.889,0.90795 3.8795,2.72386 l 8.6668,14.1971 c -4.5398,3.96198 -9.8224,7.01601 -15.9305,9.07954 -6.108,2.22862 -12.3812,3.30166 -18.9019,3.30166 z"
   id="path7"
   style="stroke-width:0.825413" />
	<path
   class="st61"
   d="m 2241.9095,390.50723 c 0.3302,7.84142 1.5683,14.6098 3.6319,20.30515 2.0635,5.69535 4.8699,10.48274 8.3366,14.27964 3.4668,3.7969 7.5938,6.60331 12.4638,8.41921 4.7874,1.81591 10.2351,2.80641 16.0955,2.80641 5.6954,0 10.5653,-0.66033 14.6924,-1.98099 4.127,-1.32066 7.7588,-2.72386 10.8129,-4.29215 3.054,-1.56828 5.6953,-3.05403 7.8414,-4.29215 2.1461,-1.32066 4.1271,-1.98099 5.943,-1.98099 2.3111,0 4.127,0.90796 5.3652,2.72387 l 8.2541,10.64782 c -3.3842,4.04452 -7.2636,7.51126 -11.6383,10.23512 -4.2922,2.8064 -8.9145,5.03502 -13.7844,6.85093 -4.87,1.73336 -9.8224,3.05403 -15.0225,3.7969 -5.1176,0.74287 -10.1526,1.15557 -15.0226,1.15557 -9.5747,0 -18.4067,-1.56828 -26.4957,-4.78739 -8.1716,-3.21911 -15.1876,-7.92396 -21.2131,-14.11456 -6.0255,-6.1906 -10.6478,-13.86694 -14.032,-23.11156 -3.3842,-9.16208 -5.0351,-19.72737 -5.0351,-31.69585 0,-9.57479 1.4858,-18.48925 4.5398,-26.74338 3.054,-8.25413 7.3462,-15.51776 12.959,-21.62582 5.6128,-6.10805 12.4637,-10.97799 20.5528,-14.52726 8.089,-3.54928 17.1686,-5.36519 27.3211,-5.36519 8.4192,0 16.2607,1.40321 23.5243,4.12707 7.1811,2.72386 13.3717,6.76838 18.6543,12.05103 5.2001,5.28264 9.3272,11.8034 12.2161,19.47974 2.889,7.67634 4.3747,16.42572 4.3747,26.24813 0,4.53977 -0.4952,7.51126 -1.4857,9.07954 -0.9905,1.56828 -2.8064,2.31116 -5.3652,2.31116 z m 69.2522,-17.82892 c 0,-4.86994 -0.6603,-9.40971 -2.0635,-13.53677 -1.4032,-4.20961 -3.4668,-7.84142 -6.1081,-10.97799 -2.7239,-3.13657 -6.0255,-5.53027 -10.07,-7.26364 -4.0446,-1.73336 -8.5843,-2.64132 -13.867,-2.64132 -10.5653,0 -18.8194,3.05403 -24.8449,9.07954 -6.0255,6.02552 -9.8224,14.52727 -11.4732,25.42272 h 68.4267 z"
   id="path8"
   style="stroke-width:0.825413" />
	<path
   class="st61"
   d="m 2402.2047,337.59826 c 2.9715,-3.05403 6.0255,-5.86043 9.2446,-8.33667 3.2192,-2.47624 6.6034,-4.62231 10.2352,-6.43822 3.6318,-1.81591 7.4287,-3.21911 11.4732,-4.2096 4.0445,-0.9905 8.4192,-1.48575 13.2066,-1.48575 7.5938,0 14.1971,1.23812 19.8925,3.7969 5.6953,2.55878 10.5652,6.10806 14.4447,10.64783 3.8794,4.62231 6.8509,10.07003 8.8319,16.50825 1.981,6.43823 2.9715,13.53678 2.9715,21.29566 v 87.74138 h -28.8895 V 369.4592 c 0,-9.24463 -2.146,-16.50826 -6.4382,-21.62582 -4.2921,-5.11756 -10.8129,-7.67634 -19.4797,-7.67634 -6.5208,0 -12.4638,1.48574 -17.994,4.45723 -5.5303,2.97149 -10.7304,7.01601 -15.6003,12.13357 v 100.3702 h -29.0546 v -137.7614 h 17.5813 c 3.962,0 6.5208,1.81591 7.5938,5.53026 z"
   id="path9"
   style="stroke-width:0.825413" />
	
	<path
   class="st61"
   d="m 1006.5141,666.85545 c 15.6003,-14.52727 34.0896,-21.70836 55.6329,-21.70836 7.9239,0 14.9399,1.32066 21.1305,3.87944 6.1906,2.55878 11.3082,6.1906 15.5178,10.89545 4.2096,4.70485 7.3462,10.23512 9.5748,16.67334 2.2286,6.43822 3.3016,13.53677 3.3016,21.37819 v 87.49376 h -12.9589 c -2.8065,0 -4.87,-0.4127 -6.3557,-1.32066 -1.4032,-0.82541 -2.6413,-2.55878 -3.6318,-5.2001 l -2.8064,-11.22561 c -3.5493,3.13657 -7.0161,5.94297 -10.4002,8.41921 -3.3842,2.47624 -6.9335,4.53977 -10.5653,6.27314 -3.6319,1.73336 -7.5938,2.97148 -11.7209,3.87944 -4.2096,0.82541 -8.8319,1.32066 -13.8669,1.32066 -5.6128,0 -10.8129,-0.74287 -15.6003,-2.31116 -4.7874,-1.56828 -8.997,-3.87944 -12.4638,-6.93347 -3.5493,-3.13656 -6.2731,-6.93346 -8.3366,-11.55578 -2.0636,-4.62231 -3.0541,-9.98749 -3.0541,-16.17809 0,-5.28264 1.4032,-10.48274 4.2922,-15.51776 2.8064,-5.03502 7.5112,-9.57479 14.032,-13.53677 6.5208,-4.04452 15.105,-7.34617 25.7529,-9.90495 10.6478,-2.64133 23.8544,-4.12707 39.5372,-4.45723 v -9.16209 c 0,-9.90495 -2.146,-17.25112 -6.3556,-22.12106 -4.2096,-4.86994 -10.4828,-7.26363 -18.6544,-7.26363 -5.6128,0 -10.2351,0.66033 -14.032,2.06353 -3.7969,1.4032 -7.0985,2.88894 -9.8224,4.53977 -2.8064,1.65082 -5.2826,3.13657 -7.4287,4.53977 -2.1461,1.4032 -4.4572,2.06353 -6.8509,2.06353 -1.981,0 -3.6319,-0.49525 -5.0351,-1.56828 -1.4032,-1.07304 -2.5587,-2.31116 -3.4667,-3.87944 z m 77.0111,58.35669 c -10.3177,0.33016 -19.0671,1.15557 -26.1656,2.47624 -7.0986,1.32066 -12.8765,2.97148 -17.2512,5.03501 -4.3747,2.06354 -7.5938,4.45723 -9.4922,7.26364 -1.8985,2.8064 -2.889,5.86043 -2.889,9.16208 0,3.21911 0.4953,6.02551 1.5683,8.33667 1.0731,2.31116 2.4763,4.2096 4.2922,5.69535 1.8159,1.48574 4.0445,2.55878 6.5207,3.21911 2.4763,0.66033 5.2001,0.99049 8.1716,0.99049 7.5938,0 14.032,-1.4032 19.4798,-4.29214 5.4477,-2.80641 10.7303,-6.93347 15.8479,-12.3812 v -25.50525 z"
   id="path11"
   style="stroke-width:0.825413" />
	<path
   class="st61"
   d="m 1191.4891,606.10506 c 0,2.64132 -0.4952,5.11756 -1.5682,7.42872 -1.0731,2.31115 -2.4763,4.37469 -4.2922,6.10805 -1.8159,1.73337 -3.8794,3.13657 -6.2731,4.20961 -2.3937,1.07304 -4.9525,1.56828 -7.5938,1.56828 -2.6413,0 -5.035,-0.49524 -7.3462,-1.56828 -2.3111,-1.07304 -4.2921,-2.3937 -6.0255,-4.20961 -1.7334,-1.73336 -3.054,-3.7969 -4.1271,-6.10805 -1.073,-2.31116 -1.5683,-4.7874 -1.5683,-7.42872 0,-2.72386 0.4953,-5.2001 1.5683,-7.5938 1.0731,-2.31115 2.3937,-4.37468 4.1271,-6.10805 1.7334,-1.73337 3.7144,-3.13657 6.0255,-4.20961 2.3112,-1.07303 4.7874,-1.56828 7.3462,-1.56828 2.7238,0 5.2826,0.49525 7.5938,1.56828 2.3937,1.07304 4.4572,2.3937 6.2731,4.20961 1.8159,1.73337 3.2191,3.7969 4.2922,6.10805 1.073,2.3937 1.5682,4.86994 1.5682,7.5938 z m -4.7873,41.60081 v 137.7614 h -29.0546 v -137.7614 z"
   id="path12"
   style="stroke-width:0.825413" />
	<path
   class="st61"
   d="m 1261.4842,673.21113 c 4.2921,-8.74938 9.5747,-15.60031 15.6828,-20.55278 6.1081,-5.03502 13.4542,-7.51126 22.0385,-7.51126 2.9715,0 5.7779,0.33017 8.3367,0.9905 2.6413,0.66033 4.9525,1.65082 7.016,3.05402 l -2.0635,21.87344 c -0.3302,1.56829 -0.908,2.55878 -1.6508,3.13657 -0.7429,0.57779 -1.816,0.90796 -3.0541,0.90796 -1.3206,0 -3.3016,-0.24763 -5.7779,-0.74287 -2.5587,-0.49525 -5.2001,-0.74288 -8.0065,-0.74288 -4.0445,0 -7.5938,0.57779 -10.7303,1.73337 -3.1366,1.15558 -5.8605,2.88895 -8.3367,5.11756 -2.4762,2.22861 -4.6223,5.03502 -6.5208,8.25413 -1.8984,3.21911 -3.6318,6.93347 -5.2826,11.06053 v 85.59531 h -29.0545 V 647.70587 h 16.8384 c 3.054,0 5.2001,0.57779 6.3557,1.65083 1.1555,1.15557 1.981,3.05402 2.3937,5.86043 z"
   id="path13"
   style="stroke-width:0.825413" />
	<path
   class="st61"
   d="m 1420.7063,627.81342 -6.8509,12.05103 -22.4513,-12.95898 c -1.5682,-0.9905 -2.9714,-1.98099 -4.2921,-2.97149 -1.3207,-0.9905 -2.5588,-2.14607 -3.5493,-3.38419 1.2381,2.8064 1.8985,6.02551 1.8985,9.73987 v 25.75288 h -14.032 v -25.50526 c 0,-3.87944 0.4952,-7.09855 1.4857,-9.73987 -1.7334,2.22862 -4.2096,4.29215 -7.4287,6.10806 l -22.2862,12.7939 -6.8509,-12.05103 22.1211,-12.7939 c 3.2191,-1.89845 6.4382,-3.13657 9.5748,-3.63182 -3.1366,-0.33016 -6.3557,-1.56828 -9.5748,-3.63181 l -22.2862,-12.95899 6.851,-12.05102 22.4512,12.95898 c 1.5683,0.99049 2.9715,1.98099 4.2921,3.05403 1.3207,1.07303 2.4763,2.14607 3.4668,3.46673 -1.1556,-2.88895 -1.7334,-6.1906 -1.7334,-9.82241 v -25.67034 h 14.032 v 25.50525 c 0,1.81591 -0.082,3.54928 -0.3301,5.11756 -0.2477,1.65083 -0.6604,3.13657 -1.3207,4.62232 2.0635,-2.3937 4.6223,-4.53978 7.5938,-6.1906 l 22.2861,-12.7939 6.851,12.05103 -22.1211,12.7939 c -1.5683,0.90795 -3.054,1.65082 -4.6223,2.39369 -1.5683,0.66033 -3.054,1.07304 -4.6223,1.32066 1.5683,0.24763 3.054,0.66033 4.6223,1.32067 1.5683,0.57778 3.054,1.4032 4.6223,2.39369 z"
   id="path14"
   style="stroke-width:0.825413" />
	<path
   class="st61"
   d="m 1668.4952,647.70587 -44.1595,137.67886 h -23.1116 c -2.7239,0 -4.6223,-1.73336 -5.6954,-5.28264 L 1568.125,694.3417 c -0.7428,-2.3937 -1.4032,-4.86994 -1.981,-7.26364 -0.5777,-2.39369 -1.073,-4.78739 -1.5682,-7.18109 -0.9905,4.86994 -2.2287,9.73987 -3.6319,14.60981 l -27.8164,85.59531 c -0.9905,3.54928 -3.1365,5.28264 -6.3556,5.28264 h -22.0386 l -44.1596,-137.7614 h 22.9465 c 2.2286,0 4.1271,0.57779 5.6128,1.65082 1.4858,1.15558 2.4763,2.47624 2.889,3.96199 l 22.9465,80.23013 c 0.9079,3.71435 1.6508,7.26363 2.3936,10.73036 0.6604,3.46674 1.3207,6.93347 1.816,10.31766 0.9079,-3.38419 1.8159,-6.85092 2.8064,-10.31766 0.9905,-3.46673 2.0635,-7.01601 3.1365,-10.73036 l 25.7529,-80.64284 c 0.4127,-1.65083 1.4032,-2.97149 2.8064,-3.96198 1.4032,-1.07304 3.054,-1.56829 5.035,-1.56829 h 12.7114 c 2.0635,0 3.7969,0.49525 5.2826,1.56829 1.4032,1.07303 2.3937,2.3937 2.8064,3.96198 l 25.0926,80.64284 c 1.073,3.71435 2.0635,7.26363 3.054,10.8129 0.908,3.54928 1.8159,7.01601 2.6413,10.56529 0.6604,-3.38419 1.3207,-6.85093 2.0636,-10.4002 0.7428,-3.54928 1.5683,-7.1811 2.5587,-10.97799 l 23.3592,-80.23013 c 0.5778,-1.65083 1.5683,-2.97149 2.9715,-4.04453 1.4032,-1.07303 3.2191,-1.65082 5.2827,-1.65082 h 21.9559 z"
   id="path15"
   style="stroke-width:0.825413" />
	<path
   class="st61"
   d="m 1774.2306,645.5598 c 10.1526,0 19.3972,1.65082 27.6514,5.03501 8.2541,3.30166 15.2701,8.08905 21.048,14.19711 5.7779,6.10805 10.3176,13.53677 13.4542,22.28614 3.1366,8.74938 4.7049,18.57179 4.7049,29.46724 0,10.89545 -1.5683,20.71786 -4.7049,29.46724 -3.1366,8.74938 -7.5938,16.17809 -13.4542,22.36869 -5.7779,6.1906 -12.7939,10.89545 -21.048,14.27964 -8.2542,3.30165 -17.4163,5.03502 -27.6514,5.03502 -10.2351,0 -19.4797,-1.65083 -27.7338,-5.03502 -8.2542,-3.30165 -15.2702,-8.08904 -21.1306,-14.27964 -5.8604,-6.1906 -10.3177,-13.61931 -13.5368,-22.36869 -3.1366,-8.74938 -4.7048,-18.57179 -4.7048,-29.46724 0,-10.89545 1.5682,-20.71786 4.7048,-29.46724 3.1366,-8.74937 7.6764,-16.17809 13.5368,-22.28614 5.8604,-6.10806 12.8764,-10.81291 21.1306,-14.19711 8.2541,-3.38419 17.4987,-5.03501 27.7338,-5.03501 z m 0,119.18961 c 12.4638,0 21.7084,-4.12706 27.7339,-12.46373 6.1081,-8.33667 9.0795,-20.22262 9.0795,-35.74038 0,-15.51776 -3.054,-27.4037 -9.0795,-35.82292 -6.1081,-8.41921 -15.3527,-12.62881 -27.7339,-12.62881 -12.6288,0 -21.956,4.2096 -28.064,12.62881 -6.1081,8.41922 -9.1621,20.3877 -9.1621,35.82292 0,15.51776 3.054,27.40371 9.1621,35.74038 6.108,8.33667 15.5178,12.46373 28.064,12.46373 z"
   id="path16"
   style="stroke-width:0.825413" />
	<path
   class="st61"
   d="m 1911.827,664.04904 c 5.6953,-5.6128 11.8859,-10.07003 18.6543,-13.45423 6.7684,-3.38419 14.6098,-5.03501 23.6068,-5.03501 7.5938,0 14.1971,1.23812 19.8924,3.7969 5.6954,2.55878 10.5653,6.10805 14.4448,10.64782 3.8794,4.53977 6.8509,10.07004 8.8319,16.50826 1.981,6.43822 2.9715,13.53677 2.9715,21.29565 v 87.65884 h -28.8895 v -87.65884 c 0,-9.24462 -2.1461,-16.50826 -6.4382,-21.62582 -4.2922,-5.11756 -10.8129,-7.67634 -19.4797,-7.67634 -6.5208,0 -12.4638,1.48575 -17.994,4.45723 -5.5303,2.97149 -10.7304,7.01601 -15.6003,12.13357 v 100.28766 h -29.0546 V 585.55228 h 29.0546 z"
   id="path17"
   style="stroke-width:0.825413" />
	<path
   class="st61"
   d="m 2085.6589,665.94749 c 2.9715,-3.05402 6.0255,-5.86043 9.2446,-8.33667 3.2191,-2.47623 6.6033,-4.62231 10.2351,-6.43822 3.6319,-1.8159 7.4288,-3.21911 11.4733,-4.2096 4.0445,-0.9905 8.5017,-1.48574 13.2066,-1.48574 7.5938,0 14.1971,1.23811 19.8924,3.79689 5.6954,2.55878 10.5653,6.10806 14.4448,10.64783 3.8794,4.53977 6.8509,10.07004 8.8319,16.50826 1.981,6.43822 2.9715,13.53677 2.9715,21.29565 v 87.65884 h -28.8895 v -87.5763 c 0,-9.24462 -2.1461,-16.50826 -6.4382,-21.62582 -4.2922,-5.11756 -10.8129,-7.67634 -19.4798,-7.67634 -6.5207,0 -12.4637,1.48575 -17.994,4.45723 -5.5302,2.97149 -10.7303,7.01601 -15.6003,12.13357 v 100.28766 h -29.0545 V 647.70587 h 17.5813 c 3.962,0 6.5208,1.81591 7.5938,5.53027 z"
   id="path18"
   style="stroke-width:0.825413" />
	<path
   class="st61"
   d="m 2241.9095,718.85646 c 0.3302,7.84142 1.5683,14.60981 3.6319,20.30515 2.0635,5.69535 4.8699,10.48275 8.3366,14.27965 3.4668,3.7969 7.5938,6.6033 12.4638,8.41921 4.7874,1.81591 10.2351,2.8064 16.0955,2.8064 5.6954,0 10.5653,-0.66033 14.6924,-1.98099 4.127,-1.32066 7.7588,-2.72386 10.8129,-4.29215 3.054,-1.56828 5.6953,-3.05402 7.8414,-4.29214 2.1461,-1.32066 4.1271,-1.98099 5.943,-1.98099 2.3111,0 4.127,0.90795 5.3652,2.72386 l 8.2541,10.64782 c -3.3842,4.04453 -7.2636,7.51126 -11.6383,10.23512 -4.2922,2.80641 -8.9145,5.03502 -13.7844,6.85093 -4.87,1.73337 -9.8224,3.05403 -15.0225,3.7969 -5.1176,0.74287 -10.1526,1.15558 -15.0226,1.15558 -9.5747,0 -18.4067,-1.56829 -26.4957,-4.7874 -8.1716,-3.21911 -15.1876,-7.92396 -21.2131,-14.11456 -6.0255,-6.19059 -10.6478,-13.94947 -14.032,-23.11156 -3.3842,-9.16208 -5.0351,-19.72736 -5.0351,-31.69585 0,-9.57479 1.4858,-18.48925 4.5398,-26.74338 3.054,-8.25413 7.3462,-15.51776 12.959,-21.62581 5.6128,-6.10806 12.4637,-10.97799 20.5528,-14.52727 8.089,-3.54928 17.1686,-5.36518 27.3211,-5.36518 8.4192,0 16.2607,1.4032 23.5243,4.12706 7.1811,2.72386 13.3717,6.76839 18.6543,12.05103 5.2001,5.28264 9.3272,11.8034 12.2161,19.47974 2.889,7.67634 4.3747,16.42572 4.3747,26.24813 0,4.53977 -0.4952,7.51126 -1.4857,9.07954 -0.9905,1.56829 -2.8064,2.31116 -5.3652,2.31116 z m 69.2522,-17.82892 c 0,-4.86994 -0.6603,-9.40971 -2.0635,-13.53677 -1.4032,-4.20961 -3.4668,-7.84142 -6.1081,-10.97799 -2.7239,-3.13657 -6.0255,-5.53027 -10.07,-7.26363 -4.0446,-1.73337 -8.5843,-2.64133 -13.867,-2.64133 -10.5653,0 -18.8194,3.05403 -24.8449,9.07955 -6.0255,6.02551 -9.8224,14.52726 -11.4732,25.42271 h 68.4267 z"
   id="path19"
   style="stroke-width:0.825413" />
	<path
   class="st61"
   d="m 2402.2047,665.94749 c 2.9715,-3.05402 6.0255,-5.86043 9.2446,-8.33667 3.2192,-2.47623 6.6034,-4.62231 10.2352,-6.43822 3.6318,-1.8159 7.4287,-3.21911 11.4732,-4.2096 4.0445,-0.9905 8.4192,-1.48574 13.2066,-1.48574 7.5938,0 14.1971,1.23811 19.8925,3.79689 5.6953,2.55878 10.5652,6.10806 14.4447,10.64783 3.8794,4.53977 6.8509,10.07004 8.8319,16.50826 1.981,6.43822 2.9715,13.53677 2.9715,21.29565 v 87.65884 h -28.8895 v -87.5763 c 0,-9.24462 -2.146,-16.50826 -6.4382,-21.62582 -4.2921,-5.11756 -10.8129,-7.67634 -19.4797,-7.67634 -6.5208,0 -12.4638,1.48575 -17.994,4.45723 -5.5303,2.97149 -10.7304,7.01601 -15.6003,12.13357 v 100.28766 h -29.0546 V 647.70587 h 17.5813 c 3.962,0 6.5208,1.81591 7.5938,5.53027 z"
   id="path20"
   style="stroke-width:0.825413" />
	<polygon
   class="st61"
   points="603.6,197.4 603.6,235.7 578.6,235.7 578.6,210.9 303.6,28.1 28.5,210.8 28.5,796.4 289.1,796.4 289.1,821.4 3.5,821.4 3.5,197.4 303.6,-1.9 "
   id="polygon20"
   transform="matrix(0.74070864,0,0,0.74070864,279.24084,146.37289)"
   style="fill:#ffffff;stroke:#ffffff;stroke-width:11.7995;stroke-dasharray:none;stroke-opacity:1" />
	<path
   class="st61"
   d="M 510.7123,341.10519 V 802.56667 H 763.96058 V 341.10519 Z M 745.51693,777.75293 640.70667,720.6443 V 359.6229 H 745.59101 Z M 529.23001,359.6229 h 92.88486 V 731.60678 L 718.407,784.04896 H 529.23001 Z"
   id="path21"
   style="fill:#ffffff;stroke:#ffffff;stroke-width:8.74;stroke-dasharray:none;stroke-opacity:1" />
	
	
	
	
	
	
	
	
	
	
	
	
	
	
	
	
	
	
	
	
	
	
	
	
	
	
	
	
	
	
	
	
	
	
	
	
	
	
	
	
	
	
	
	
	
	
	
	
	
	
	
	
	
	
	
	
	
</g>
</svg>
