<?xml version="1.0" encoding="UTF-8" standalone="no"?>
<!-- Generator: Adobe Illustrator 25.1.0, SVG Export Plug-In . SVG Version: 6.00 Build 0)  -->

<svg
   version="1.1"
   id="Ebene_1"
   x="0px"
   y="0px"
   width="209.38252"
   height="80"
   viewBox="0 0 2617.2815 999.99999"
   xml:space="preserve"
   sodipodi:docname="logo_rund_2.svg"
   inkscape:version="1.3.2 (1:1.3.2+202311252150+091e20ef0f)"
   xmlns:inkscape="http://www.inkscape.org/namespaces/inkscape"
   xmlns:sodipodi="http://sodipodi.sourceforge.net/DTD/sodipodi-0.dtd"
   xmlns="http://www.w3.org/2000/svg"
   xmlns:svg="http://www.w3.org/2000/svg"><sodipodi:namedview
   id="namedview1"
   pagecolor="#ffffff"
   bordercolor="#666666"
   borderopacity="1.0"
   inkscape:showpageshadow="2"
   inkscape:pageopacity="0.0"
   inkscape:pagecheckerboard="0"
   inkscape:deskcolor="#d1d1d1"
   inkscape:zoom="4.1073151"
   inkscape:cx="122.82963"
   inkscape:cy="54.293375"
   inkscape:window-width="1530"
   inkscape:window-height="836"
   inkscape:window-x="70"
   inkscape:window-y="27"
   inkscape:window-maximized="1"
   inkscape:current-layer="g78" /><defs
   id="defs78" />
<style
   type="text/css"
   id="style1">
	.st0{opacity:0.32;}
	.st1{fill:#0F579D;}
	.st2{opacity:0.63;}
	.st3{opacity:0.23;}
	.st4{opacity:0.33;}
	.st5{opacity:0.4;}
	.st6{opacity:0.5;fill:#0F579D;}
	.st7{opacity:0.39;}
	.st8{opacity:0.36;}
	.st9{opacity:0.36;fill:#0F579D;}
	.st10{fill:#9C27B0;}
	.st11{fill:#46997D;}
	.st12{fill:#F3912A;}
	.st13{fill:#006193;}
	.st14{fill:#D91E18;}
	.st15{fill:#FFFFFF;}
	.st16{fill:none;stroke:#FFFFFF;stroke-width:2.3655;stroke-miterlimit:10;}
	.st17{fill:#FFCC00;}
	.st18{fill:#E53C43;}
	.st19{fill:#ED1C24;}
	.st20{fill:#5CADD6;}
	.st21{fill:#A56DF5;}
	.st22{fill:#909504;}
	.st23{fill:#FF931E;}
	.st24{fill:#A6D0E4;}
	.st25{fill:url(#);}
	.st26{fill:#F2F2F2;stroke:#131313;stroke-width:1.0632;stroke-miterlimit:10;}
	.st27{fill:#1B1464;}
	.st28{fill:#666666;}
	.st29{fill:#09325A;}
	.st30{fill:#F2F2F2;}
	.st31{fill:#4D4D4D;}
	.st32{fill:#E8EAEC;}
	.st33{fill:#35A649;}
	.st34{fill:#664747;}
	.st35{fill:none;stroke:#FFFFFF;stroke-miterlimit:10;}
	.st36{fill:none;}
	.st37{fill:none;stroke:#FFFFFF;stroke-width:4;stroke-miterlimit:10;}
	.st38{fill:#40806A;}
	.st39{fill:none;stroke:#0F579D;stroke-width:0.8902;stroke-miterlimit:10;}
	.st40{fill:none;stroke:#0F579D;stroke-width:0.506;stroke-miterlimit:10;}
	.st41{fill:none;stroke:#0F579D;stroke-width:0.8329;stroke-miterlimit:10;}
	.st42{fill:none;stroke:#0F579D;stroke-width:0.4734;stroke-miterlimit:10;}
	.st43{fill:#FF3C43;}
	.st44{fill:none;stroke:#FFFFFF;stroke-width:0.9615;stroke-miterlimit:10;}
	.st45{fill:#FFC108;}
	.st46{fill:#3F50B5;}
	.st47{fill:#4CAF50;}
	.st48{fill:#FF9800;}
	.st49{fill:#F44436;}
	.st50{fill:#533700;}
	.st51{fill:none;stroke:#FFFFFF;stroke-width:2.5753;stroke-miterlimit:10;}
	.st52{fill:#7BB6A2;}
	.st53{fill:#A1CBBD;}
	.st54{fill:#D2007F;}
	.st55{fill:#4B6319;}
	.st56{fill:#008000;}
	.st57{fill:#552118;}
	.st58{fill:#007A7C;}
	.st59{fill:#8859B6;}
	.st60{fill:#646464;}
	.st61{fill:#12589E;}
	.st62{fill:none;stroke:#FFFFFF;stroke-width:1.147;stroke-miterlimit:10;}
	.st63{fill:#FFFFFF;stroke:#8E9105;stroke-width:1.147;stroke-miterlimit:10;}
	.st64{fill:#F08B22;}
	.st65{fill:#FBAE17;}
	.st66{fill:#8C6239;}
	.st67{fill:#F15A24;}
	.st68{fill:#662D91;}
	.st69{fill:#109875;}
	.st70{opacity:0.17;}
	.st71{opacity:0.17;fill:#666666;}
	.st72{fill:#6F6F6F;}
	.st73{fill:#BABABA;}
	.st74{fill:#CECECE;}
	.st75{fill:#C6C6C6;}
	.st76{fill:none;stroke:#46997D;stroke-width:7.8464;stroke-miterlimit:10;}
	.st77{fill:none;stroke:#46997D;stroke-width:0.938;stroke-miterlimit:10;}
	.st78{fill:#10589D;}
	.st79{fill:#FFDD03;}
	.st80{fill:#525252;}
	.st81{fill:#A7A7A7;}
	.st82{fill:#484848;}
	.st83{fill:none;stroke:#1B1464;stroke-width:2.9177;stroke-miterlimit:10;}
	.st84{fill:none;stroke:#000000;stroke-miterlimit:10;}
	.st85{fill:none;stroke:#FF931E;stroke-width:1.9545;stroke-miterlimit:10;}
	.st86{opacity:0.3;fill:#ED1C24;}
	.st87{fill:#1D1D1B;}
	.st88{fill:none;stroke:#1D1D1B;stroke-miterlimit:10;}
	.st89{opacity:0.58;}
	.st90{opacity:0.95;}
	.st91{clip-path:url(#SVGID_2_);}
	.st92{opacity:0.41;}
	.st93{opacity:0.78;}
	.st94{opacity:0.68;fill:#C1272D;}
	.st95{opacity:0.79;fill:#C1272D;}
	.st96{fill:none;stroke:#0F579D;stroke-width:1.4579;stroke-miterlimit:10;}
	.st97{fill:#B4B3B4;}
	.st98{fill:none;stroke:#000000;stroke-width:0.7587;}
	.st99{fill:#003F72;}
	.st100{fill:#00436C;}
	.st101{clip-path:url(#SVGID_6_);fill:#10589E;}
	.st102{fill:#10589E;}
	.st103{clip-path:url(#SVGID_8_);fill:#10589E;}
	.st104{fill:#F3912B;}
	.st105{clip-path:url(#SVGID_10_);fill:#F3912B;}
	.st106{clip-path:url(#SVGID_12_);fill:#10589E;}
	.st107{clip-path:url(#SVGID_14_);fill:#10589E;}
	.st108{fill:#646363;}
	.st109{fill:#FFCD1C;}
	.st110{clip-path:url(#SVGID_15_);fill:#FFCD1C;}
	.st111{clip-path:url(#SVGID_16_);fill:#FFCD1C;}
	.st112{clip-path:url(#SVGID_17_);fill:#FFCD1C;}
	.st113{clip-path:url(#SVGID_18_);fill:#FECD1B;}
	.st114{clip-path:url(#SVGID_19_);fill:#007A7C;}
	.st115{clip-path:url(#SVGID_20_);fill:#D91E18;}
	.st116{clip-path:url(#SVGID_20_);fill:#DA1E19;}
	.st117{clip-path:url(#SVGID_21_);fill:#4B6319;}
	.st118{clip-path:url(#SVGID_22_);fill:#7F5BA2;}
	.st119{fill:#7F5BA2;}
	.st120{clip-path:url(#SVGID_23_);fill:#7F5BA2;}
	.st121{clip-path:url(#SVGID_23_);fill:#8859B6;}
	.st122{clip-path:url(#SVGID_24_);fill:#008000;}
	.st123{clip-path:url(#SVGID_24_);fill:#098B3A;}
	.st124{clip-path:url(#SVGID_26_);fill:#D2007F;}
	.st125{clip-path:url(#SVGID_28_);fill:#552118;}
	.st126{clip-path:url(#SVGID_28_);fill:#562219;}
	.st127{fill:#F39325;}
	.st128{fill:none;stroke:#0F579D;stroke-miterlimit:10;}
	.st129{opacity:0.51;fill:#FFFFFF;}
	.st130{fill:#1D1D1B;stroke:#1D1D1B;stroke-width:1.3556;stroke-miterlimit:10;}
</style>
<g
   id="g78">
	
	
	
	
	
	
	
	
	
	
	
	
	
	
	
	
	
	
	
	
	<path
   id="path22"
   style="fill:#12589e;stroke-width:16.6243"
   d="m 884.90349,755.5608 c -16.73094,23.11215 -32.39601,47.01122 -52.93381,67.54902 -82.15121,82.15121 -193.57214,128.30327 -309.75148,128.30327 -116.17934,0 -227.60028,-46.15207 -309.75148,-128.30327 C 130.31552,740.95862 84.163452,629.53768 84.163452,513.35834 84.163452,397.179 130.31552,285.75806 212.46672,203.60686 294.61792,121.45565 406.03886,75.30359 522.2182,75.303589 c 116.17934,0 227.60027,46.152071 309.75148,128.303271 20.5378,20.5378 37.87713,43.35972 53.48405,67.26963 2.34933,3.59919 6.07749,13.42495 6.03875,28.17277 l -1.13054,430.42348 c -0.0372,14.14702 -3.42789,23.28305 -5.45845,26.08806 z"
   sodipodi:nodetypes="ssssssssssss" /><polygon
   class="st61"
   points="603.6,197.4 603.6,235.7 578.6,235.7 578.6,210.9 303.6,28.1 28.5,210.8 28.5,796.4 289.1,796.4 289.1,821.4 3.5,821.4 3.5,197.4 303.6,-1.9 "
   id="polygon20"
   transform="matrix(0.74070864,0,0,0.74070864,279.24084,146.37289)"
   style="fill:#ffffff;stroke:#ffffff;stroke-width:11.7995;stroke-dasharray:none;stroke-opacity:1" />
	<path
   class="st61"
   d="M 510.7123,341.10519 V 802.56667 H 763.96058 V 341.10519 Z M 745.51693,777.75293 640.70667,720.6443 V 359.6229 H 745.59101 Z M 529.23001,359.6229 h 92.88486 V 731.60678 L 718.407,784.04896 H 529.23001 Z"
   id="path21"
   style="fill:#ffffff;stroke:#ffffff;stroke-width:8.74;stroke-dasharray:none;stroke-opacity:1" />
	
	
	
	
	
	
	
	
	
	
	
	
	
	
	
	
	
	
	
	
	
	
	
	
	
	
	
	
	
	
	
	
	
	
	
	
	
	
	
	
	
	
	
	
	
	
	
	
	
	
	
	
	
	
	
	
	
<path
   class="st61"
   d="M 924.00671,427.35606 V 312.66114 291.43969 279.79674 c 0,-7.84451 1.1554,-14.86323 3.4682,-21.05625 2.3117,-6.19303 5.6147,-11.47776 9.8262,-15.77161 4.29324,-4.29385 9.49584,-7.59681 15.60604,-9.90888 6.1101,-2.31207 13.0463,-3.46806 20.6421,-3.46806 3.13775,0 6.1112,0.2477 9.0012,0.66059 2.80725,0.4128 5.6146,1.15599 8.3394,2.06428 l -0.5782,14.61562 c -0.1652,2.39457 -1.4032,3.88095 -3.55075,4.29385 -2.2291,0.41279 -4.95385,0.66059 -8.3394,0.66059 -4.0462,0 -7.67955,0.49539 -10.9823,1.40368 -3.22035,0.90839 -6.0276,2.55977 -8.33935,4.78935 -2.31165,2.22947 -4.04615,5.20213 -5.2851,8.91789 -1.238,3.71585 -1.8162,8.2574 -1.8162,13.78983 v 10.65207 h 37.6533 v 20.97375 h -36.7447 v 114.94262 z"
   id="path1"
   style="fill:#12589e;stroke:none;stroke-width:0.825738"
   sodipodi:nodetypes="cccsccssccccscscscccccc" /><path
   class="st61"
   d="m 1017.3131,308.69759 c 15.6062,-14.53303 34.1034,-21.71694 55.6547,-21.71694 7.9275,0 14.9455,1.32118 21.1394,3.88095 6.1929,2.55987 11.312,6.19313 15.5236,10.89977 4.2115,4.70674 7.3493,10.23918 9.5785,16.6799 2.2291,6.44082 3.3029,13.54214 3.3029,21.38664 v 87.52815 h -12.964 c -2.8074,0 -4.8724,-0.4128 -6.3581,-1.32118 -1.4042,-0.82569 -2.6422,-2.55977 -3.6334,-5.20214 l -2.8074,-11.22997 c -3.5507,3.13777 -7.0189,5.94533 -10.4044,8.4225 -3.3856,2.47717 -6.9364,4.54155 -10.5697,6.27563 -3.6334,1.73398 -7.5961,2.97266 -11.7251,3.88095 -4.2115,0.82569 -8.8361,1.32118 -13.8726,1.32118 -5.6147,0 -10.8175,-0.74319 -15.6062,-2.31207 -4.7898,-1.56888 -9.0003,-3.88095 -12.4685,-6.93621 -3.5507,-3.13777 -6.2755,-6.93622 -8.3405,-11.56036 -2.064,-4.62405 -3.0551,-9.99139 -3.0551,-16.18441 0,-5.28474 1.4041,-10.48688 4.2941,-15.52391 2.8074,-5.03694 7.5135,-9.57849 14.0369,-13.54204 6.5233,-4.04615 15.1116,-7.34911 25.7638,-9.90888 10.6513,-2.64237 23.8632,-4.12865 39.5529,-4.45895 v -9.24829 c 0,-9.90888 -2.1475,-17.25789 -6.359,-22.12983 -4.2106,-4.87184 -10.4861,-7.26641 -18.6614,-7.26641 -5.6148,0 -10.2393,0.66059 -14.0379,2.06427 -3.7975,1.40378 -7.1005,2.89017 -9.8262,4.54165 -2.8074,1.65138 -5.2844,3.13776 -7.431,4.54154 -2.1475,1.40369 -4.4593,2.06428 -6.8537,2.06428 -1.9823,0 -3.6333,-0.4954 -5.0375,-1.56888 -1.4032,-1.07349 -2.5596,-2.31208 -3.4682,-3.88096 z m 77.0418,58.37969 c -10.3218,0.3303 -19.0753,1.15599 -26.1758,2.47717 -7.1015,1.32119 -12.8825,2.97267 -17.2582,5.03704 -4.3768,2.06428 -7.5971,4.45895 -9.4959,7.26642 -1.8998,2.80756 -2.89,5.86282 -2.89,9.16569 0,3.22046 0.4946,6.02792 1.5684,8.34 1.0738,2.31207 2.477,4.21125 4.2942,5.69763 1.8161,1.48628 4.0463,2.55977 6.5233,3.22036 2.477,0.66059 5.2017,0.99089 8.1743,0.99089 7.5971,0 14.0378,-1.40379 19.4874,-4.29385 5.4505,-2.80757 10.7348,-6.93622 15.854,-12.38605 v -25.5153 z"
   id="path2"
   style="fill:#12589e;stroke-width:0.825738" /><path
   class="st61"
   d="m 1202.3614,247.92332 c 0,2.64237 -0.4955,5.11954 -1.5693,7.43161 -1.0738,2.31207 -2.477,4.37645 -4.2942,6.11043 -1.8161,1.73407 -3.8811,3.13786 -6.2755,4.21125 -2.3944,1.07348 -4.9539,1.56897 -7.5961,1.56897 -2.6432,0 -5.0375,-0.49549 -7.3493,-1.56897 -2.3128,-1.07339 -4.2942,-2.39458 -6.0277,-4.21125 -1.7346,-1.73398 -3.0552,-3.79836 -4.129,-6.11043 -1.0738,-2.31207 -1.5694,-4.78924 -1.5694,-7.43161 0,-2.72497 0.4956,-5.20214 1.5694,-7.59681 1.0738,-2.31207 2.3944,-4.37645 4.129,-6.11043 1.7335,-1.73408 3.7149,-3.13786 6.0277,-4.21134 2.3118,-1.07339 4.7887,-1.56889 7.3493,-1.56889 2.7248,0 5.2843,0.4955 7.5961,1.56889 2.3944,1.07348 4.4594,2.39467 6.2755,4.21134 1.8172,1.73398 3.2204,3.79836 4.2942,6.11043 1.0738,2.39467 1.5693,4.87184 1.5693,7.59681 z m -4.7897,41.6172 v 137.81554 h -29.0658 V 289.54052 Z"
   id="path3"
   style="fill:#12589e;stroke-width:0.825738" /><path
   class="st61"
   d="m 1844.7847,317.53298 c -2.0639,-6.52332 -5.1191,-11.97316 -9.0829,-16.4322 -4.0463,-4.45895 -8.9177,-7.84451 -14.6986,-10.23918 -5.7799,-2.31197 -12.3858,-3.55065 -19.8168,-3.55065 -4.5419,0 -8.9186,0.49549 -13.2944,1.56897 -4.3767,1.07339 -8.5057,2.64228 -12.3868,4.78925 -3.8802,2.14687 -7.3484,4.95444 -10.5687,8.3399 -3.1378,3.38556 -5.7809,7.51421 -7.8449,12.30355 -1.3216,-4.12875 -3.0552,-7.84451 -5.1192,-11.23006 -2.0649,-3.30296 -4.5419,-6.19303 -7.3493,-8.5051 -2.8073,-2.31207 -6.1103,-4.12865 -9.8262,-5.36724 -3.716,-1.23868 -7.7623,-1.89927 -12.1381,-1.89927 -4.129,0 -8.0101,0.49549 -11.5609,1.48638 -3.5507,0.99088 -6.8537,2.39457 -9.9914,4.12865 -3.1378,1.73408 -6.0278,3.79845 -8.7525,6.19302 -2.7248,2.39467 -5.2854,5.03704 -7.8449,7.92711 l -1.8988,-12.05576 c -1.0738,-3.71585 -3.6334,-5.53243 -7.5971,-5.53243 h -17.5886 v 123.94321 c -10.2383,2.14697 -20.395,4.21125 -30.4691,6.02792 -15.854,2.89007 -32.121,5.28474 -48.9662,7.26642 -16.7626,1.89927 -34.3511,3.38556 -52.7647,4.37644 -18.4146,0.99089 -38.2314,1.48639 -59.6185,1.48639 -21.5514,0 -41.4517,-0.4955 -59.8663,-1.48639 -18.4136,-0.99088 -36.0021,-2.47717 -52.7647,-4.37644 -16.7617,-1.89918 -33.1113,-4.37635 -48.9662,-7.26642 -9.9906,-1.81667 -20.0646,-3.79845 -30.2213,-5.94532 v -71.83924 c 1.651,-4.12865 3.3856,-7.8445 5.2843,-11.06487 1.8988,-3.22036 4.0464,-6.02782 6.5234,-8.2574 2.4769,-2.22947 5.2843,-3.96355 8.3404,-5.11954 3.1378,-1.15598 6.6876,-1.73407 10.7339,-1.73407 2.8074,0 5.4506,0.24779 8.0101,0.74319 2.5596,0.49549 4.4584,0.74319 5.78,0.74319 1.2389,0 2.3117,-0.3303 3.0551,-0.90829 0.7434,-0.57809 1.3216,-1.65148 1.652,-3.13786 l 2.064,-21.88204 c -2.064,-1.32118 -4.3768,-2.39467 -7.0189,-3.05526 -2.6422,-0.66059 -5.367,-0.99089 -8.3395,-0.99089 -8.5883,0 -15.9367,2.47727 -22.048,7.51421 -6.1103,5.03704 -11.312,11.89066 -15.6888,20.56095 l -1.7336,-18.00108 c -0.413,-2.80757 -1.2389,-4.78934 -2.3953,-5.86283 -1.1554,-1.15599 -3.303,-1.65138 -6.3581,-1.65138 h -16.8443 v 137.81554 c 30.0561,7.76201 63.3335,13.87243 99.7487,18.33138 36.4151,4.45904 76.794,6.68852 121.1357,6.68852 44.3426,0 84.638,-2.39467 121.1357,-6.68852 51.278,-6.11043 70.1882,-7.51421 99.7496,-18.33138 V 325.79038 c 3.8802,-4.78934 8.0917,-8.5051 12.7163,-11.31266 4.6235,-2.72487 9.5785,-4.12865 15.028,-4.12865 7.8449,0 13.79,2.39467 17.8364,7.10131 4.0454,4.70674 6.1103,12.13836 6.1103,22.21234 v 87.69334 h 29.0659 v -87.69334 c 0,-4.87185 0.6607,-9.0831 2.0639,-12.79895 1.4042,-3.63316 3.303,-6.68842 5.781,-9.08309 2.3943,-2.39457 5.2843,-4.29385 8.5047,-5.53244 3.2203,-1.23858 6.6885,-1.89917 10.4044,-1.89917 8.1744,0 14.3673,2.47717 18.5788,7.34901 4.2116,4.87194 6.2755,12.22095 6.2755,21.96464 v 87.69334 h 29.0659 v -87.69334 c -0.087,-8.25731 -1.1554,-15.68902 -3.2204,-22.12974 z"
   id="path4"
   style="fill:#12589e;stroke-width:0.825738" /><path
   class="st61"
   d="m 1927.8542,247.92332 c 0,2.64237 -0.4955,5.11954 -1.5689,7.43161 -1.0734,2.31207 -2.4772,4.37645 -4.2939,6.11043 -1.8166,1.73407 -3.8809,3.13786 -6.2755,4.21125 -2.3947,1.07348 -4.9546,1.56897 -7.5967,1.56897 -2.6422,0 -5.0376,-0.49549 -7.3493,-1.56897 -2.3118,-1.07339 -4.2942,-2.39458 -6.0278,-4.21125 -1.7345,-1.73398 -3.0551,-3.79836 -4.1289,-6.11043 -1.0728,-2.31207 -1.5684,-4.78924 -1.5684,-7.43161 0,-2.72497 0.4956,-5.20214 1.5684,-7.59681 1.0738,-2.31207 2.3944,-4.37645 4.1289,-6.11043 1.7336,-1.73408 3.716,-3.13786 6.0278,-4.21134 2.3117,-1.07339 4.7897,-1.56889 7.3493,-1.56889 2.7247,0 5.2846,0.4955 7.5967,1.56889 2.3946,1.07348 4.4589,2.39467 6.2755,4.21134 1.8167,1.73398 3.2205,3.79836 4.2939,6.11043 1.0734,2.39467 1.5689,4.87184 1.5689,7.59681 z m -4.7893,41.6172 v 137.81554 h -29.0662 V 289.54052 Z"
   id="path5"
   style="fill:#12589e;stroke-width:0.825738" /><path
   class="st61"
   d="m 1991.5186,360.71906 c 0.3303,7.84451 1.5688,14.61553 3.6332,20.31316 2.0644,5.69763 4.8719,10.48687 8.3399,14.28523 3.4682,3.79845 7.5968,6.60592 12.4687,8.42259 4.7893,1.81658 10.2391,2.80747 16.1019,2.80747 5.6976,0 10.5695,-0.66059 14.6981,-1.98178 4.1288,-1.32118 7.7619,-2.72496 10.8172,-4.29384 3.0552,-1.56889 5.6976,-3.05517 7.8445,-4.29385 2.147,-1.32119 4.1287,-1.98178 5.9453,-1.98178 2.3121,0 4.1287,0.90839 5.3673,2.72497 l 8.2573,10.65197 c -3.3854,4.04615 -7.2664,7.51431 -11.6428,10.23918 -4.2939,2.80756 -8.918,5.03704 -13.7899,6.85361 -4.8718,1.73408 -9.8262,3.05527 -15.0284,3.79846 -5.1195,0.74309 -10.1565,1.15598 -15.0284,1.15598 -9.5786,0 -18.414,-1.56888 -26.5062,-4.78924 -8.1748,-3.22036 -15.1936,-7.9271 -21.2214,-14.12013 -6.0279,-6.19302 -10.6521,-13.87243 -14.0375,-23.12062 -3.3856,-9.16569 -5.0371,-19.73516 -5.0371,-31.70842 0,-9.57848 1.4864,-18.49648 4.5416,-26.75388 3.0552,-8.2574 7.3491,-15.52381 12.9641,-21.63434 5.6149,-6.11042 12.4686,-10.98226 20.5609,-14.53292 8.0922,-3.55066 17.1752,-5.36734 27.3318,-5.36734 8.4225,0 16.2671,1.40379 23.5335,4.12866 7.184,2.72496 13.377,6.77111 18.6617,12.05585 5.2022,5.28464 9.3309,11.80806 12.221,19.48736 2.89,7.67941 4.3764,16.43221 4.3764,26.25849 0,4.54154 -0.4955,7.51421 -1.4864,9.08309 -0.9909,1.56888 -2.8074,2.31207 -5.3672,2.31207 z m 69.2793,-17.83589 c 0,-4.87193 -0.6606,-9.41348 -2.0642,-13.54213 -1.4038,-4.21125 -3.4682,-7.84451 -6.1106,-10.98237 -2.7248,-3.13776 -6.0278,-5.53243 -10.0739,-7.26641 -4.0462,-1.73408 -8.5877,-2.64237 -13.8725,-2.64237 -10.5694,0 -18.8268,3.05516 -24.8547,9.08309 -6.0278,6.02793 -9.8263,14.53302 -11.4777,25.4327 h 68.4536 z"
   id="path6"
   style="fill:#12589e;stroke-width:0.825738" /><path
   class="st61"
   d="m 2167.6484,429.50303 c -11.4777,0 -20.2305,-3.22036 -26.4235,-9.66118 -6.1931,-6.44072 -9.2483,-15.52381 -9.2483,-27.24927 v -80.26174 h -15.111 c -1.6515,0 -3.0553,-0.49549 -4.2113,-1.56888 -1.1561,-1.07348 -1.7341,-2.55977 -1.7341,-4.62414 v -11.72546 l 22.295,-3.22046 6.3582,-39.88312 c 0.4128,-1.56888 1.2386,-2.80747 2.3121,-3.71576 1.0733,-0.90839 2.5597,-1.40378 4.2937,-1.40378 h 14.8633 v 45.25045 h 38.2317 v 20.97375 h -38.2317 v 78.19736 c 0,4.95444 1.2386,8.7528 3.6333,11.31257 2.3947,2.64236 5.6976,3.88095 9.7437,3.88095 2.2294,0 4.2112,-0.3303 5.7802,-0.90829 1.6514,-0.57799 3.0552,-1.23859 4.2112,-1.89918 1.156,-0.66059 2.1469,-1.32118 3.0552,-1.89918 0.8258,-0.57809 1.6515,-0.90838 2.4773,-0.90838 1.6515,0 2.89,0.90838 3.8809,2.72496 l 8.6702,14.20273 c -4.5415,3.96355 -9.8263,7.01872 -15.9367,9.08309 -6.1104,2.22948 -12.386,3.30296 -18.9094,3.30296 z"
   id="path7"
   style="fill:#12589e;stroke-width:0.825738" /><path
   class="st61"
   d="m 2253.1948,360.71906 c 0.3303,7.84451 1.569,14.61553 3.6333,20.31316 2.0643,5.69763 4.8718,10.48687 8.34,14.28523 3.468,3.79845 7.5968,6.60592 12.4686,8.42259 4.7893,1.81658 10.2392,2.80747 16.1019,2.80747 5.6976,0 10.5694,-0.66059 14.6982,-1.98178 4.1286,-1.32118 7.7619,-2.72496 10.8171,-4.29384 3.0552,-1.56889 5.6976,-3.05517 7.8445,-4.29385 2.1469,-1.32119 4.1287,-1.98178 5.9454,-1.98178 2.3119,0 4.1286,0.90839 5.3672,2.72497 l 8.2574,10.65197 c -3.3856,4.04615 -7.2665,7.51431 -11.643,10.23918 -4.2937,2.80756 -8.9179,5.03704 -13.7897,6.85361 -4.8719,1.73408 -9.8263,3.05527 -15.0285,3.79846 -5.1196,0.74309 -10.1565,1.15598 -15.0284,1.15598 -9.5785,0 -18.4139,-1.56888 -26.5062,-4.78924 -8.1748,-3.22036 -15.1935,-7.9271 -21.2215,-14.12013 -6.0278,-6.19302 -10.6519,-13.87243 -14.0375,-23.12062 -3.3856,-9.16569 -5.0369,-19.73516 -5.0369,-31.70842 0,-9.57848 1.4862,-18.49648 4.5415,-26.75388 3.0552,-8.2574 7.349,-15.52381 12.9641,-21.63434 5.615,-6.11042 12.4686,-10.98226 20.5608,-14.53292 8.0922,-3.55066 17.1754,-5.36734 27.332,-5.36734 8.4225,0 16.267,1.40379 23.5335,4.12866 7.1839,2.72496 13.3769,6.77111 18.6617,12.05585 5.2021,5.28464 9.3308,11.80806 12.2208,19.48736 2.8902,7.67941 4.3765,16.43221 4.3765,26.25849 0,4.54154 -0.4954,7.51421 -1.4863,9.08309 -0.9909,1.56888 -2.8076,2.31207 -5.3673,2.31207 z m 69.2795,-17.83589 c 0,-4.87193 -0.6606,-9.41348 -2.0644,-13.54213 -1.4038,-4.21125 -3.468,-7.84451 -6.1104,-10.98237 -2.725,-3.13776 -6.0279,-5.53243 -10.074,-7.26641 -4.0461,-1.73408 -8.5877,-2.64237 -13.8724,-2.64237 -10.5695,0 -18.8269,3.05516 -24.8547,9.08309 -6.028,6.02793 -9.8263,14.53302 -11.4778,25.4327 h 68.4537 z"
   id="path8"
   style="fill:#12589e;stroke-width:0.825738" /><path
   class="st61"
   d="m 2413.5532,307.7893 c 2.9726,-3.05526 6.0278,-5.86273 9.2482,-8.34 3.2203,-2.47717 6.6059,-4.62414 10.2392,-6.44072 3.6332,-1.81668 7.4316,-3.22037 11.4777,-4.21125 4.0462,-0.99089 8.4225,-1.48638 13.2119,-1.48638 7.5967,0 14.2026,1.23868 19.9002,3.79845 5.6975,2.55977 10.5694,6.11043 14.4504,10.65197 3.881,4.62415 6.8537,10.07398 8.8354,16.5148 1.9818,6.44072 2.9727,13.54204 2.9727,21.30404 v 87.77585 h -28.9009 v -87.69334 c 0,-9.2482 -2.1469,-16.51471 -6.4408,-21.63434 -4.2937,-5.11954 -10.817,-7.67931 -19.4873,-7.67931 -6.5234,0 -12.4687,1.48628 -18.0011,4.45894 -5.5325,2.97267 -10.7346,7.01882 -15.6064,12.13836 v 100.40969 h -29.066 V 289.54052 h 17.5882 c 3.9636,0 6.5233,1.81658 7.5968,5.53243 z"
   id="path9"
   style="fill:#12589e;stroke-width:0.825738" /><path
   class="st61"
   d="M 924.00671,755.75201 V 641.13959 619.91814 608.27528 c 0,-7.8445 1.1554,-14.86332 3.4682,-21.05634 2.3117,-6.19303 5.6147,-11.47777 9.8262,-15.77161 4.29324,-4.29385 9.49584,-7.59681 15.60604,-9.90888 6.1101,-2.31198 13.0463,-3.46806 20.6421,-3.46806 3.13775,0 6.1112,0.24769 9.0012,0.66059 2.80725,0.41289 5.6146,1.15608 8.3394,2.06437 l -0.5782,14.61553 c -0.1652,2.39467 -1.4032,3.88095 -3.55075,4.29385 -2.2291,0.41289 -4.95385,0.66059 -8.3394,0.66059 -4.0462,0 -7.67955,0.49539 -10.9823,1.40378 -3.22035,0.90829 -6.0276,2.55977 -8.33935,4.78924 -2.31165,2.22948 -4.04615,5.20214 -5.2851,8.918 -1.238,3.71575 -1.8162,8.2574 -1.8162,13.78983 v 10.65197 h 37.6533 v 20.97375 h -36.7447 v 114.94272 h -28.90044 z"
   id="path10"
   style="fill:#12589e;stroke:none;stroke-width:0.825;stroke-dasharray:none"
   sodipodi:nodetypes="cccsccssccccscscsccccccc" /><path
   class="st61"
   d="m 1017.3131,637.17604 c 15.6062,-14.53293 34.1034,-21.71684 55.6547,-21.71684 7.9275,0 14.9455,1.32118 21.1394,3.88095 6.1929,2.55977 11.312,6.19302 15.5236,10.89977 4.2115,4.70664 7.3493,10.23908 9.5785,16.6799 2.2291,6.44072 3.3029,13.54204 3.3029,21.38654 v 87.52825 h -12.964 c -2.8074,0 -4.8724,-0.4129 -6.3581,-1.32119 -1.4042,-0.82579 -2.6422,-2.55977 -3.6334,-5.20214 l -2.8074,-11.23006 c -3.5507,3.13776 -7.0189,5.94533 -10.4044,8.4225 -3.3856,2.47727 -6.9364,4.54155 -10.5697,6.27562 -3.6334,1.73408 -7.5961,2.97267 -11.7251,3.88096 -4.2115,0.82579 -8.8361,1.32118 -13.8726,1.32118 -5.6147,0 -10.8175,-0.74309 -15.6062,-2.31207 -4.7898,-1.56888 -9.0003,-3.88095 -12.4685,-6.93612 -3.5507,-3.13786 -6.2755,-6.93622 -8.3405,-11.56036 -2.064,-4.62414 -3.0551,-9.99148 -3.0551,-16.1845 0,-5.28474 1.4041,-10.48688 4.2941,-15.52382 2.8074,-5.03704 7.5135,-9.57858 14.0369,-13.54213 6.5233,-4.04615 15.1116,-7.34902 25.7638,-9.90888 10.6513,-2.64237 23.8632,-4.12866 39.5529,-4.45895 v -9.16569 c 0,-9.90888 -2.1475,-17.25789 -6.359,-22.12974 -4.2106,-4.87193 -10.4861,-7.26651 -18.6614,-7.26651 -5.6148,0 -10.2393,0.66059 -14.0379,2.06438 -3.7975,1.40368 -7.1005,2.89006 -9.8262,4.54154 -2.8074,1.65148 -5.2844,3.13777 -7.431,4.54155 -2.1475,1.40368 -4.4593,2.06428 -6.8537,2.06428 -1.9823,0 -3.6333,-0.4954 -5.0375,-1.56889 -1.4032,-1.07339 -2.5596,-2.31207 -3.4682,-3.88095 z m 77.0418,58.37969 c -10.3218,0.3303 -19.0753,1.15599 -26.1758,2.47717 -7.1015,1.32119 -12.8825,2.97267 -17.2582,5.03704 -4.3768,2.06438 -7.5971,4.45895 -9.4959,7.26651 -1.8998,2.80747 -2.89,5.86273 -2.89,9.16569 0,3.22037 0.4946,6.02783 1.5684,8.3399 1.0738,2.31208 2.477,4.21125 4.2942,5.69763 1.8161,1.48629 4.0463,2.55977 6.5233,3.22037 2.477,0.66059 5.2017,0.99088 8.1743,0.99088 7.5971,0 14.0378,-1.40378 19.4874,-4.29384 5.4505,-2.80747 10.7348,-6.93622 15.854,-12.38605 v -25.5153 z"
   id="path11"
   style="fill:#12589e;stroke-width:0.825738" /><path
   class="st61"
   d="m 1202.3614,576.40177 c 0,2.64236 -0.4955,5.11954 -1.5693,7.43161 -1.0738,2.31207 -2.477,4.37644 -4.2942,6.11052 -1.8161,1.73398 -3.8811,3.13777 -6.2755,4.21125 -2.3944,1.07349 -4.9539,1.56888 -7.5961,1.56888 -2.6432,0 -5.0375,-0.49539 -7.3493,-1.56888 -2.3128,-1.07348 -4.2942,-2.39467 -6.0277,-4.21125 -1.7346,-1.73408 -3.0552,-3.79845 -4.129,-6.11052 -1.0738,-2.31207 -1.5694,-4.78925 -1.5694,-7.43161 0,-2.72497 0.4956,-5.20214 1.5694,-7.59681 1.0738,-2.31207 2.3944,-4.37635 4.129,-6.11043 1.7335,-1.73408 3.7149,-3.13776 6.0277,-4.21125 2.3118,-1.07349 4.7887,-1.56888 7.3493,-1.56888 2.7248,0 5.2843,0.49539 7.5961,1.56888 2.3944,1.07349 4.4594,2.39457 6.2755,4.21125 1.8172,1.73408 3.2204,3.79836 4.2942,6.11043 1.0738,2.39467 1.5693,4.87184 1.5693,7.59681 z m -4.7897,41.61719 v 137.81565 h -29.0658 V 618.01896 Z"
   id="path12"
   style="fill:#12589e;stroke-width:0.825738" /><path
   class="st61"
   d="m 1272.3834,643.53426 c 4.2942,-8.7528 9.5785,-15.60642 15.6888,-20.56086 6.1104,-5.03703 13.4597,-7.5142 22.048,-7.5142 2.9725,0 5.7799,0.33029 8.3395,0.99088 2.6421,0.6606 4.9549,1.65148 7.0189,3.05517 l -2.064,21.88204 c -0.3304,1.56897 -0.9086,2.55986 -1.652,3.13786 -0.7434,0.57799 -1.8162,0.90829 -3.0551,0.90829 -1.3216,0 -3.303,-0.2477 -5.78,-0.74319 -2.5596,-0.4954 -5.2027,-0.7431 -8.0101,-0.7431 -4.0463,0 -7.5961,0.578 -10.7348,1.73398 -3.1378,1.15609 -5.8626,2.89017 -8.3395,5.11964 -2.477,2.22947 -4.6246,5.03694 -6.5234,8.2574 -1.8988,3.22036 -3.6333,6.93612 -5.2843,11.06487 v 85.62897 h -29.0668 V 618.01896 h 16.8452 c 3.0551,0 5.2027,0.578 6.3581,1.65148 1.1564,1.15599 1.9823,3.05527 2.3953,5.86273 z"
   id="path13"
   style="fill:#12589e;stroke-width:0.825738" /><path
   class="st61"
   d="m 1431.6679,598.1187 -6.8527,12.05576 -22.4609,-12.96414 c -1.5684,-0.99089 -2.9726,-1.98168 -4.2932,-2.97257 -1.3216,-0.99089 -2.5596,-2.14697 -3.5508,-3.38556 1.238,2.80747 1.8988,6.02783 1.8988,9.74369 v 25.76299 h -14.0368 v -25.5153 c 0,-3.88095 0.4946,-7.10131 1.4858,-9.74368 -1.7336,2.22947 -4.2116,4.29385 -7.4319,6.11043 l -22.2948,12.79894 -6.8537,-12.05575 22.1296,-12.79895 c 3.2203,-1.89918 6.4417,-3.13776 9.5794,-3.63325 -3.1377,-0.3303 -6.3591,-1.56889 -9.5794,-3.63316 l -22.2948,-12.96415 6.8537,-12.05575 22.46,12.96404 c 1.5693,0.99089 2.9725,1.98178 4.2941,3.05527 1.3216,1.07348 2.477,2.14687 3.4682,3.46806 -1.1564,-2.89007 -1.7346,-6.19303 -1.7346,-9.82629 v -25.68039 h 14.0378 v 25.51529 c 0,1.81658 -0.087,3.55066 -0.3304,5.11954 -0.2478,1.65148 -0.6598,3.13786 -1.3206,4.62415 2.064,-2.39467 4.6236,-4.54155 7.5962,-6.19303 l 22.2957,-12.79894 6.8527,12.05575 -22.1295,12.79895 c -1.5684,0.90829 -3.0552,1.65148 -4.6236,2.39467 -1.5694,0.66059 -3.0551,1.07348 -4.6245,1.32118 1.5694,0.2477 3.0551,0.66059 4.6245,1.32119 1.5684,0.57799 3.0552,1.40378 4.6236,2.39467 z"
   id="path14"
   style="fill:#12589e;stroke-width:0.825738" /><path
   class="st61"
   d="m 1679.5551,618.01896 -44.1774,137.73305 h -23.1208 c -2.7247,0 -4.6235,-1.73408 -5.6973,-5.28474 l -27.4149,-85.79417 c -0.7424,-2.39457 -1.4032,-4.87184 -1.9813,-7.26641 -0.5782,-2.39467 -1.0738,-4.78934 -1.5694,-7.18401 -0.9902,4.87194 -2.2292,9.74378 -3.6324,14.61562 l -27.8278,85.62897 c -0.9912,3.55066 -3.1378,5.28474 -6.3582,5.28474 h -22.0469 l -44.1775,-137.81564 h 22.9556 c 2.2301,0 4.1289,0.57799 5.6157,1.65148 1.4858,1.15608 2.4769,2.47727 2.8899,3.96355 l 22.9556,80.26173 c 0.9076,3.71576 1.651,7.26651 2.3943,10.73457 0.6608,3.46806 1.3216,6.93622 1.8162,10.32168 0.9086,-3.38546 1.8172,-6.85362 2.8074,-10.32168 0.9912,-3.46806 2.065,-7.01881 3.1387,-10.73457 l 25.7629,-80.67463 c 0.413,-1.65148 1.4032,-2.97266 2.8074,-3.96355 1.4032,-1.07339 3.0552,-1.56888 5.0365,-1.56888 h 12.7163 c 2.065,0 3.7985,0.49549 5.2853,1.56888 1.4032,1.07349 2.3944,2.39467 2.8074,3.96355 l 25.1021,80.67463 c 1.0738,3.71576 2.065,7.26651 3.0552,10.81717 0.9085,3.55066 1.8171,7.01872 2.6431,10.56938 0.6598,-3.38546 1.3206,-6.85362 2.064,-10.40428 0.7434,-3.55066 1.5684,-7.18391 2.5596,-10.98227 l 23.3685,-80.26173 c 0.5782,-1.65148 1.5684,-2.97267 2.9725,-4.04615 1.4042,-1.07339 3.2204,-1.65148 5.2844,-1.65148 h 21.9653 z"
   id="path15"
   style="fill:#12589e;stroke-width:0.825738" /><path
   class="st61"
   d="m 1785.3315,615.87199 c 10.1566,0 19.4047,1.65148 27.6626,5.03704 8.2569,3.30296 15.2758,8.0922 21.0567,14.20273 5.78,6.11043 10.3209,13.54204 13.4587,22.29493 3.1378,8.7528 4.7071,18.57908 4.7071,29.47875 0,10.89977 -1.5693,20.72605 -4.7071,29.47884 -3.1378,8.7529 -7.5961,16.18451 -13.4587,22.37753 -5.7809,6.19303 -12.7998,10.89977 -21.0567,14.28523 -8.2579,3.30296 -17.4234,5.03704 -27.6626,5.03704 -10.2383,0 -19.4874,-1.65148 -27.7443,-5.03704 -8.2579,-3.30296 -15.2758,-8.0922 -21.1394,-14.28523 -5.8625,-6.19302 -10.3218,-13.62463 -13.5422,-22.37753 -3.1378,-8.75279 -4.7061,-18.57907 -4.7061,-29.47884 0,-10.89967 1.5683,-20.72595 4.7061,-29.47875 3.1387,-8.75289 7.6797,-16.1845 13.5422,-22.29493 5.8636,-6.11053 12.8815,-10.81717 21.1394,-14.20273 8.2569,-3.38556 17.506,-5.03704 27.7443,-5.03704 z m 0,119.23657 c 12.4694,0 21.7175,-4.12865 27.7452,-12.46865 6.1103,-8.3399 9.0829,-20.23056 9.0829,-35.75447 0,-15.52382 -3.0552,-27.41447 -9.0829,-35.83697 -6.1103,-8.4225 -15.3584,-12.63375 -27.7452,-12.63375 -12.6337,0 -21.9644,4.21125 -28.0747,12.63375 -6.1103,8.4225 -9.1655,20.39575 -9.1655,35.83697 0,15.52391 3.0552,27.41457 9.1655,35.75447 6.1103,8.34 15.5236,12.46865 28.0747,12.46865 z"
   id="path16"
   style="fill:#12589e;stroke-width:0.825738" /><path
   class="st61"
   d="m 1922.9823,634.36857 c 5.6976,-5.61503 11.8906,-10.07398 18.6617,-13.45954 6.7711,-3.38556 14.6156,-5.03704 23.6161,-5.03704 7.5968,0 14.2027,1.23869 19.9002,3.79845 5.6977,2.55977 10.5695,6.11043 14.4505,10.65198 3.8809,4.54154 6.8536,10.07407 8.8354,16.5148 1.9817,6.44072 2.9726,13.54204 2.9726,21.30404 v 87.69335 h -28.9008 v -87.69335 c 0,-9.24829 -2.1469,-16.5148 -6.4407,-21.63434 -4.2939,-5.11963 -10.8172,-7.6794 -19.4874,-7.6794 -6.5233,0 -12.4687,1.48638 -18.0011,4.45904 -5.5324,2.97266 -10.7346,7.01872 -15.6065,12.13835 v 100.3271 h -29.0662 v -199.9111 h 29.0662 z"
   id="path17"
   style="fill:#12589e;stroke-width:0.825738" /><path
   class="st61"
   d="m 2096.8827,636.26775 c 2.9727,-3.05527 6.0279,-5.86273 9.2483,-8.33991 3.2203,-2.47726 6.6059,-4.62414 10.2392,-6.44082 3.6331,-1.81658 7.4316,-3.22036 11.4776,-4.21125 4.0462,-0.99088 8.5051,-1.48628 13.2119,-1.48628 7.5968,0 14.2027,1.23859 19.9002,3.79836 5.6977,2.55977 10.5695,6.11042 14.4505,10.65207 3.8809,4.54154 6.8536,10.07398 8.8353,16.5147 1.9818,6.44072 2.9727,13.54214 2.9727,21.30404 v 87.69335 h -28.9008 v -87.61075 c 0,-9.24829 -2.1469,-16.5148 -6.4408,-21.63434 -4.2938,-5.11963 -10.8171,-7.6794 -19.4873,-7.6794 -6.5234,0 -12.4687,1.48638 -18.0011,4.45904 -5.5325,2.97266 -10.7347,7.01872 -15.6065,12.13835 v 100.3271 h -29.066 V 618.01896 h 17.5882 c 3.9636,0 6.5233,1.81658 7.5968,5.53244 z"
   id="path18"
   style="fill:#12589e;stroke-width:0.825738" /><path
   class="st61"
   d="m 2253.1948,689.19751 c 0.3303,7.84451 1.569,14.61562 3.6333,20.31316 2.0643,5.69763 4.8718,10.48687 8.34,14.28532 3.468,3.79836 7.5968,6.60592 12.4686,8.4225 4.7893,1.81658 10.2392,2.80747 16.1019,2.80747 5.6976,0 10.5694,-0.66059 14.6982,-1.98178 4.1286,-1.32118 7.7619,-2.72487 10.8171,-4.29375 3.0552,-1.56898 5.6976,-3.05526 7.8445,-4.29385 2.1469,-1.32118 4.1287,-1.98177 5.9454,-1.98177 2.3119,0 4.1286,0.90829 5.3672,2.72487 l 8.2574,10.65207 c -3.3856,4.04615 -7.2665,7.51421 -11.643,10.23917 -4.2937,2.80747 -8.9179,5.03694 -13.7897,6.85362 -4.8719,1.73398 -9.8263,3.05517 -15.0285,3.79836 -5.1196,0.74319 -10.1565,1.15608 -15.0284,1.15608 -9.5785,0 -18.4139,-1.56898 -26.5062,-4.78934 -8.1748,-3.22036 -15.1935,-7.9271 -21.2215,-14.12013 -6.0278,-6.19303 -10.6519,-13.95493 -14.0375,-23.12062 -3.3856,-9.16569 -5.0369,-19.73516 -5.0369,-31.70832 0,-9.57859 1.4862,-18.49658 4.5415,-26.75388 3.0552,-8.2574 7.349,-15.52391 12.9641,-21.63434 5.615,-6.11052 12.4686,-10.98237 20.5608,-14.53302 8.0922,-3.55066 17.1754,-5.36734 27.332,-5.36734 8.4225,0 16.267,1.40378 23.5335,4.12875 7.1839,2.72497 13.3769,6.77102 18.6617,12.05576 5.2021,5.28473 9.3308,11.80805 12.2208,19.48736 2.8902,7.67941 4.3765,16.4322 4.3765,26.25849 0,4.54154 -0.4954,7.51421 -1.4863,9.08309 -0.9909,1.56898 -2.8076,2.31207 -5.3673,2.31207 z m 69.2795,-17.83589 c 0,-4.87184 -0.6606,-9.41338 -2.0644,-13.54213 -1.4038,-4.21125 -3.468,-7.84451 -6.1104,-10.98227 -2.725,-3.13786 -6.0279,-5.53244 -10.074,-7.26651 -4.0461,-1.73408 -8.5877,-2.64237 -13.8724,-2.64237 -10.5695,0 -18.8269,3.05526 -24.8547,9.08309 -6.028,6.02793 -9.8263,14.53302 -11.4778,25.43279 h 68.4537 z"
   id="path19"
   style="fill:#12589e;stroke-width:0.825738" /><path
   class="st61"
   d="m 2413.5532,636.26775 c 2.9726,-3.05527 6.0278,-5.86273 9.2482,-8.33991 3.2203,-2.47726 6.6059,-4.62414 10.2392,-6.44082 3.6332,-1.81658 7.4316,-3.22036 11.4777,-4.21125 4.0462,-0.99088 8.4225,-1.48628 13.2119,-1.48628 7.5967,0 14.2026,1.23859 19.9002,3.79836 5.6975,2.55977 10.5694,6.11042 14.4504,10.65207 3.881,4.54154 6.8537,10.07398 8.8354,16.5147 1.9818,6.44072 2.9727,13.54214 2.9727,21.30404 v 87.69335 h -28.9009 v -87.61075 c 0,-9.24829 -2.1469,-16.5148 -6.4408,-21.63434 -4.2937,-5.11963 -10.817,-7.6794 -19.4873,-7.6794 -6.5234,0 -12.4687,1.48638 -18.0011,4.45904 -5.5325,2.97266 -10.7346,7.01872 -15.6064,12.13835 v 100.3271 h -29.066 V 618.01896 h 17.5882 c 3.9636,0 6.5233,1.81658 7.5968,5.53244 z"
   id="path20"
   style="fill:#12589e;stroke-width:0.825738" /></g>
</svg>
